<?xml version="1.0" encoding="UTF-8" ?>
<svg version="1.1" width="72" height="72" xmlns="http://www.w3.org/2000/svg" shape-rendering="crispEdges">
<rect x="15" y="19" width="2" height="1" fill="#778B98" opacity="0.666667" />
<rect x="17" y="19" width="1" height="1" fill="#54636C" opacity="0.890196" />
<rect x="18" y="19" width="1" height="1" fill="#778B98" opacity="0.666667" />
<rect x="19" y="19" width="1" height="1" fill="#778B98" opacity="0.890196" />
<rect x="20" y="19" width="7" height="1" fill="#778B98" opacity="0.666667" />
<rect x="27" y="19" width="4" height="1" fill="#54636C" opacity="0.890196" />
<rect x="31" y="19" width="1" height="1" fill="#566670" opacity="0.964706" />
<rect x="32" y="19" width="1" height="1" fill="#778B98" opacity="0.666667" />
<rect x="33" y="19" width="3" height="1" fill="#778B98" opacity="0.890196" />
<rect x="36" y="19" width="1" height="1" fill="#566670" opacity="0.964706" />
<rect x="37" y="19" width="3" height="1" fill="#54636C" opacity="0.890196" />
<rect x="40" y="19" width="1" height="1" fill="#49575F" opacity="0.988235" />
<rect x="41" y="19" width="3" height="1" fill="#54636C" opacity="0.890196" />
<rect x="44" y="19" width="12" height="1" fill="#778B98" opacity="0.666667" />
<rect x="14" y="20" width="1" height="1" fill="#778B98" opacity="0.666667" />
<rect x="15" y="20" width="35" height="1" fill="#26394D" />
<rect x="50" y="20" width="1" height="1" fill="#455662" />
<rect x="51" y="20" width="6" height="1" fill="#26394D" />
<rect x="57" y="20" width="1" height="1" fill="#778B98" opacity="0.666667" />
<rect x="13" y="21" width="1" height="1" fill="#778B98" opacity="0.666667" />
<rect x="14" y="21" width="1" height="1" fill="#26394D" />
<rect x="15" y="21" width="28" height="1" fill="#9EBBCF" />
<rect x="43" y="21" width="1" height="1" fill="#667985" />
<rect x="44" y="21" width="1" height="1" fill="#9EBBCF" />
<rect x="45" y="21" width="1" height="1" fill="#5C7A4F" />
<rect x="46" y="21" width="4" height="1" fill="#9EBBCF" />
<rect x="50" y="21" width="1" height="2" fill="#667985" />
<rect x="51" y="21" width="1" height="1" fill="#51616A" />
<rect x="52" y="21" width="1" height="1" fill="#53636C" />
<rect x="53" y="21" width="1" height="25" fill="#9EBBCF" />
<rect x="54" y="21" width="3" height="2" fill="#B8D4E6" />
<rect x="57" y="21" width="1" height="1" fill="#26394D" />
<rect x="58" y="21" width="1" height="1" fill="#778B98" opacity="0.666667" />
<rect x="12" y="22" width="1" height="1" fill="#778B98" opacity="0.666667" />
<rect x="13" y="22" width="1" height="1" fill="#26394D" />
<rect x="14" y="22" width="5" height="4" fill="#9EBBCF" />
<rect x="19" y="22" width="1" height="1" fill="#6F8D74" />
<rect x="20" y="22" width="24" height="4" fill="#9EBBCF" />
<rect x="44" y="22" width="1" height="1" fill="#596D6D" />
<rect x="45" y="22" width="1" height="1" fill="#6F8D74" />
<rect x="46" y="22" width="3" height="1" fill="#9EBBCF" />
<rect x="49" y="22" width="1" height="1" fill="#667985" />
<rect x="51" y="22" width="1" height="1" fill="#667985" />
<rect x="52" y="22" width="1" height="23" fill="#9EBBCF" />
<rect x="57" y="22" width="1" height="1" fill="#B8D4E6" />
<rect x="58" y="22" width="1" height="1" fill="#26394D" />
<rect x="12" y="23" width="1" height="35" fill="#26394D" />
<rect x="13" y="23" width="1" height="24" fill="#9EBBCF" />
<rect x="19" y="23" width="1" height="8" fill="#9EBBCF" />
<rect x="44" y="23" width="1" height="1" fill="#667985" />
<rect x="45" y="23" width="3" height="1" fill="#9EBBCF" />
<rect x="48" y="23" width="1" height="1" fill="#667985" />
<rect x="49" y="23" width="3" height="21" fill="#9EBBCF" />
<rect x="54" y="23" width="2" height="23" fill="#9EBBCF" />
<rect x="56" y="23" width="1" height="1" fill="#B8D4E6" />
<rect x="57" y="23" width="2" height="2" fill="#CDE7F7" />
<rect x="59" y="23" width="1" height="28" fill="#26394D" />
<rect x="11" y="24" width="1" height="13" fill="#778B98" opacity="0.666667" />
<rect x="44" y="24" width="1" height="2" fill="#9EBBCF" />
<rect x="45" y="24" width="1" height="1" fill="#576872" />
<rect x="46" y="24" width="2" height="1" fill="#667985" />
<rect x="48" y="24" width="1" height="19" fill="#9EBBCF" />
<rect x="56" y="24" width="1" height="23" fill="#9EBBCF" />
<rect x="60" y="24" width="1" height="3" fill="#778B98" opacity="0.666667" />
<rect x="45" y="25" width="1" height="1" fill="#667985" />
<rect x="46" y="25" width="2" height="1" fill="#9EBBCF" />
<rect x="57" y="25" width="2" height="23" fill="#B8D4E6" />
<rect x="14" y="26" width="1" height="20" fill="#9EBBCF" />
<rect x="15" y="26" width="1" height="6" fill="#C6E0F1" />
<rect x="16" y="26" width="3" height="1" fill="#9EBBCF" />
<rect x="20" y="26" width="16" height="2" fill="#9EBBCF" />
<rect x="36" y="26" width="2" height="1" fill="#9FBCD1" />
<rect x="38" y="26" width="6" height="1" fill="#9EBBCF" />
<rect x="44" y="26" width="1" height="2" fill="#667985" />
<rect x="45" y="26" width="2" height="2" fill="#5C7A4F" />
<rect x="47" y="26" width="1" height="1" fill="#9EBBCF" />
<rect x="16" y="27" width="1" height="4" fill="#C6E0F1" />
<rect x="17" y="27" width="2" height="6" fill="#9EBBCF" />
<rect x="36" y="27" width="4" height="1" fill="#9EBBCF" />
<rect x="40" y="27" width="1" height="1" fill="#6F8D74" />
<rect x="41" y="27" width="1" height="7" fill="#9EBBCF" />
<rect x="42" y="27" width="1" height="1" fill="#6F8D74" />
<rect x="43" y="27" width="1" height="1" fill="#9EBBCF" />
<rect x="47" y="27" width="1" height="1" fill="#5C7A4F" />
<rect x="60" y="27" width="1" height="5" fill="#778B98" opacity="0.890196" />
<rect x="20" y="28" width="15" height="1" fill="#9EBBCF" />
<rect x="35" y="28" width="1" height="1" fill="#829DB0" />
<rect x="36" y="28" width="1" height="1" fill="#A7C2D3" />
<rect x="37" y="28" width="1" height="1" fill="#B5D1E3" />
<rect x="38" y="28" width="3" height="2" fill="#9EBBCF" />
<rect x="42" y="28" width="1" height="5" fill="#9EBBCF" />
<rect x="43" y="28" width="1" height="1" fill="#6F8D74" />
<rect x="44" y="28" width="1" height="1" fill="#5C7A4F" />
<rect x="45" y="28" width="1" height="2" fill="#667985" />
<rect x="46" y="28" width="1" height="1" fill="#6F8D74" />
<rect x="47" y="28" width="1" height="13" fill="#9EBBCF" />
<rect x="20" y="29" width="14" height="1" fill="#9EBBCF" />
<rect x="34" y="29" width="1" height="1" fill="#829DB0" />
<rect x="35" y="29" width="3" height="1" fill="#2B516E" />
<rect x="43" y="29" width="1" height="1" fill="#5C7A4F" />
<rect x="44" y="29" width="1" height="1" fill="#6F8D74" />
<rect x="46" y="29" width="1" height="1" fill="#9EBBCF" />
<rect x="20" y="30" width="1" height="4" fill="#9DBBD1" />
<rect x="21" y="30" width="12" height="5" fill="#9EBBCF" />
<rect x="33" y="30" width="1" height="1" fill="#446782" />
<rect x="34" y="30" width="1" height="1" fill="#2B516E" />
<rect x="35" y="30" width="2" height="1" fill="#6688A4" />
<rect x="37" y="30" width="2" height="1" fill="#2B516E" />
<rect x="39" y="30" width="2" height="5" fill="#9EBBCF" />
<rect x="43" y="30" width="3" height="1" fill="#9EBBCF" />
<rect x="46" y="30" width="1" height="1" fill="#667985" />
<rect x="16" y="31" width="1" height="2" fill="#B8D4E6" />
<rect x="19" y="31" width="1" height="1" fill="#9DBBD1" />
<rect x="33" y="31" width="1" height="1" fill="#2B516E" />
<rect x="34" y="31" width="1" height="1" fill="#6688A4" />
<rect x="35" y="31" width="1" height="1" fill="#A7C2D3" />
<rect x="36" y="31" width="1" height="1" fill="#BAD4E5" />
<rect x="37" y="31" width="1" height="3" fill="#9EBBCF" />
<rect x="38" y="31" width="1" height="1" fill="#2B516E" />
<rect x="43" y="31" width="1" height="1" fill="#9EBBCF" />
<rect x="44" y="31" width="1" height="1" fill="#667985" />
<rect x="45" y="31" width="1" height="1" fill="#576872" />
<rect x="46" y="31" width="1" height="4" fill="#9EBBCF" />
<rect x="15" y="32" width="1" height="1" fill="#B8D4E6" />
<rect x="19" y="32" width="1" height="2" fill="#9EBBCF" />
<rect x="33" y="32" width="1" height="1" fill="#446782" />
<rect x="34" y="32" width="1" height="1" fill="#2B516E" />
<rect x="35" y="32" width="1" height="1" fill="#446782" />
<rect x="36" y="32" width="1" height="1" fill="#9EBBCF" />
<rect x="38" y="32" width="1" height="3" fill="#9EBBCF" />
<rect x="43" y="32" width="1" height="1" fill="#667985" />
<rect x="44" y="32" width="2" height="6" fill="#9EBBCF" />
<rect x="60" y="32" width="1" height="1" fill="#778B98" opacity="0.666667" />
<rect x="15" y="33" width="2" height="1" fill="#C6E0F1" />
<rect x="17" y="33" width="1" height="4" fill="#B8D4E6" />
<rect x="18" y="33" width="1" height="5" fill="#9EBBCF" />
<rect x="33" y="33" width="1" height="1" fill="#9EBBCF" />
<rect x="34" y="33" width="1" height="1" fill="#829DB0" />
<rect x="35" y="33" width="1" height="1" fill="#6688A4" />
<rect x="36" y="33" width="1" height="1" fill="#446782" />
<rect x="42" y="33" width="1" height="1" fill="#667985" />
<rect x="43" y="33" width="1" height="5" fill="#9EBBCF" />
<rect x="60" y="33" width="1" height="6" fill="#54636C" opacity="0.890196" />
<rect x="15" y="34" width="1" height="2" fill="#C6E0F1" />
<rect x="16" y="34" width="1" height="3" fill="#CDE7F7" />
<rect x="19" y="34" width="1" height="4" fill="#9DBBD1" />
<rect x="20" y="34" width="1" height="11" fill="#9EBBCF" />
<rect x="33" y="34" width="1" height="1" fill="#829DB0" />
<rect x="34" y="34" width="1" height="1" fill="#9EBBCF" />
<rect x="35" y="34" width="1" height="2" fill="#446782" />
<rect x="36" y="34" width="1" height="5" fill="#6688A4" />
<rect x="37" y="34" width="1" height="1" fill="#446782" />
<rect x="41" y="34" width="1" height="1" fill="#576872" />
<rect x="42" y="34" width="1" height="2" fill="#9EBBCF" />
<rect x="21" y="35" width="4" height="7" fill="#9EBBCF" />
<rect x="25" y="35" width="1" height="1" fill="#9EBCD1" />
<rect x="26" y="35" width="6" height="1" fill="#9EBBCF" />
<rect x="32" y="35" width="3" height="1" fill="#2B516E" />
<rect x="37" y="35" width="1" height="5" fill="#6688A4" />
<rect x="38" y="35" width="1" height="1" fill="#446782" />
<rect x="39" y="35" width="1" height="1" fill="#2B516E" />
<rect x="40" y="35" width="1" height="1" fill="#829DB0" />
<rect x="41" y="35" width="1" height="1" fill="#667985" />
<rect x="46" y="35" width="1" height="1" fill="#9FBCD1" />
<rect x="15" y="36" width="1" height="1" fill="#CDE7F7" />
<rect x="25" y="36" width="1" height="1" fill="#9FBCD1" />
<rect x="26" y="36" width="5" height="1" fill="#9EBBCF" />
<rect x="31" y="36" width="1" height="1" fill="#829DB0" />
<rect x="32" y="36" width="1" height="2" fill="#2B516E" />
<rect x="33" y="36" width="2" height="1" fill="#446782" />
<rect x="35" y="36" width="1" height="3" fill="#6688A4" />
<rect x="38" y="36" width="1" height="4" fill="#6688A4" />
<rect x="39" y="36" width="1" height="1" fill="#446782" />
<rect x="40" y="36" width="1" height="1" fill="#2B516E" />
<rect x="41" y="36" width="1" height="1" fill="#A7C2D3" />
<rect x="42" y="36" width="1" height="1" fill="#B5D1E3" />
<rect x="46" y="36" width="1" height="5" fill="#9EBBCF" />
<rect x="11" y="37" width="1" height="3" fill="#778B98" opacity="0.890196" />
<rect x="15" y="37" width="2" height="1" fill="#B8D4E6" />
<rect x="17" y="37" width="1" height="2" fill="#9EBBCF" />
<rect x="25" y="37" width="5" height="1" fill="#9EBBCF" />
<rect x="30" y="37" width="1" height="1" fill="#446782" />
<rect x="31" y="37" width="1" height="1" fill="#2B516E" />
<rect x="33" y="37" width="2" height="2" fill="#6688A4" />
<rect x="39" y="37" width="1" height="3" fill="#6688A4" />
<rect x="40" y="37" width="1" height="1" fill="#446782" />
<rect x="41" y="37" width="1" height="1" fill="#2B516E" />
<rect x="42" y="37" width="1" height="1" fill="#829DB0" />
<rect x="15" y="38" width="2" height="2" fill="#9EBBCF" />
<rect x="18" y="38" width="1" height="7" fill="#9DBBD1" />
<rect x="19" y="38" width="1" height="6" fill="#9EBBCF" />
<rect x="25" y="38" width="4" height="1" fill="#9EBBCF" />
<rect x="29" y="38" width="1" height="1" fill="#829DB0" />
<rect x="30" y="38" width="1" height="1" fill="#2B516E" />
<rect x="31" y="38" width="2" height="2" fill="#6688A4" />
<rect x="40" y="38" width="1" height="3" fill="#6688A4" />
<rect x="41" y="38" width="1" height="1" fill="#446782" />
<rect x="42" y="38" width="1" height="1" fill="#2B516E" />
<rect x="43" y="38" width="2" height="1" fill="#829DB0" />
<rect x="45" y="38" width="1" height="2" fill="#9EBBCF" />
<rect x="17" y="39" width="1" height="1" fill="#6F8D74" />
<rect x="25" y="39" width="3" height="1" fill="#9EBBCF" />
<rect x="28" y="39" width="1" height="1" fill="#829DB0" />
<rect x="29" y="39" width="1" height="1" fill="#446782" />
<rect x="30" y="39" width="1" height="3" fill="#6688A4" />
<rect x="33" y="39" width="1" height="1" fill="#6688A4" />
<rect x="34" y="39" width="2" height="1" fill="#829DB0" />
<rect x="36" y="39" width="1" height="2" fill="#A7C2D3" />
<rect x="41" y="39" width="1" height="3" fill="#6688A4" />
<rect x="42" y="39" width="1" height="1" fill="#446782" />
<rect x="43" y="39" width="1" height="1" fill="#2B516E" />
<rect x="44" y="39" width="1" height="1" fill="#829DB0" />
<rect x="60" y="39" width="1" height="19" fill="#778B98" opacity="0.666667" />
<rect x="11" y="40" width="1" height="2" fill="#54636C" opacity="0.890196" />
<rect x="15" y="40" width="2" height="1" fill="#6F8D74" />
<rect x="17" y="40" width="1" height="2" fill="#9EBBCF" />
<rect x="25" y="40" width="1" height="1" fill="#9EBBCF" />
<rect x="26" y="40" width="1" height="1" fill="#829DB0" />
<rect x="27" y="40" width="1" height="1" fill="#2B516E" />
<rect x="28" y="40" width="1" height="1" fill="#446782" />
<rect x="29" y="40" width="1" height="3" fill="#6688A4" />
<rect x="31" y="40" width="1" height="1" fill="#6688A4" />
<rect x="32" y="40" width="3" height="1" fill="#829DB0" />
<rect x="35" y="40" width="1" height="1" fill="#A7C2D3" />
<rect x="37" y="40" width="2" height="1" fill="#A7C2D3" />
<rect x="39" y="40" width="1" height="4" fill="#9EBBCF" />
<rect x="42" y="40" width="1" height="3" fill="#6688A4" />
<rect x="43" y="40" width="1" height="1" fill="#446782" />
<rect x="44" y="40" width="1" height="1" fill="#2B516E" />
<rect x="45" y="40" width="1" height="1" fill="#446782" />
<rect x="15" y="41" width="1" height="4" fill="#9EBBCF" />
<rect x="16" y="41" width="1" height="1" fill="#6F8D74" />
<rect x="25" y="41" width="1" height="1" fill="#446782" />
<rect x="26" y="41" width="1" height="1" fill="#2B516E" />
<rect x="27" y="41" width="1" height="1" fill="#446782" />
<rect x="28" y="41" width="1" height="4" fill="#6688A4" />
<rect x="31" y="41" width="8" height="3" fill="#9EBBCF" />
<rect x="40" y="41" width="1" height="3" fill="#9EBBCF" />
<rect x="43" y="41" width="1" height="4" fill="#6688A4" />
<rect x="44" y="41" width="1" height="1" fill="#446782" />
<rect x="45" y="41" width="1" height="1" fill="#2B516E" />
<rect x="46" y="41" width="1" height="1" fill="#446782" />
<rect x="47" y="41" width="1" height="1" fill="#829DB0" />
<rect x="11" y="42" width="1" height="3" fill="#566670" opacity="0.964706" />
<rect x="16" y="42" width="1" height="2" fill="#9EBBCF" />
<rect x="17" y="42" width="1" height="1" fill="#6F8D74" />
<rect x="21" y="42" width="3" height="1" fill="#9EBBCF" />
<rect x="24" y="42" width="1" height="1" fill="#446782" />
<rect x="25" y="42" width="1" height="1" fill="#2B516E" />
<rect x="26" y="42" width="2" height="3" fill="#6688A4" />
<rect x="30" y="42" width="1" height="2" fill="#9EBBCF" />
<rect x="41" y="42" width="1" height="2" fill="#9EBBCF" />
<rect x="44" y="42" width="2" height="3" fill="#6688A4" />
<rect x="46" y="42" width="1" height="1" fill="#2B516E" />
<rect x="47" y="42" width="1" height="1" fill="#446782" />
<rect x="17" y="43" width="1" height="1" fill="#5C7A4F" />
<rect x="21" y="43" width="2" height="1" fill="#9EBBCF" />
<rect x="23" y="43" width="1" height="1" fill="#829DB0" />
<rect x="24" y="43" width="1" height="1" fill="#2B516E" />
<rect x="25" y="43" width="1" height="3" fill="#6688A4" />
<rect x="29" y="43" width="1" height="1" fill="#9EBBCF" />
<rect x="42" y="43" width="1" height="1" fill="#9EBBCF" />
<rect x="46" y="43" width="1" height="2" fill="#6688A4" />
<rect x="47" y="43" width="2" height="1" fill="#2B516E" />
<rect x="16" y="44" width="1" height="1" fill="#667985" />
<rect x="17" y="44" width="1" height="1" fill="#6F8D74" />
<rect x="19" y="44" width="1" height="1" fill="#9DBBD1" />
<rect x="21" y="44" width="1" height="2" fill="#9EBBCF" />
<rect x="22" y="44" width="1" height="1" fill="#829DB0" />
<rect x="23" y="44" width="1" height="1" fill="#446782" />
<rect x="24" y="44" width="1" height="2" fill="#6688A4" />
<rect x="29" y="44" width="5" height="1" fill="#446782" />
<rect x="34" y="44" width="9" height="1" fill="#2B516E" />
<rect x="47" y="44" width="2" height="1" fill="#6688A4" />
<rect x="49" y="44" width="1" height="1" fill="#446782" />
<rect x="50" y="44" width="2" height="2" fill="#9EBBCF" />
<rect x="11" y="45" width="1" height="5" fill="#54636C" opacity="0.890196" />
<rect x="15" y="45" width="1" height="2" fill="#667985" />
<rect x="16" y="45" width="1" height="1" fill="#5C7A4F" />
<rect x="17" y="45" width="1" height="1" fill="#596D6D" />
<rect x="18" y="45" width="2" height="1" fill="#6F8D75" />
<rect x="20" y="45" width="1" height="1" fill="#6F8D74" />
<rect x="22" y="45" width="1" height="1" fill="#446782" />
<rect x="23" y="45" width="1" height="1" fill="#6688A4" />
<rect x="26" y="45" width="1" height="1" fill="#829DB0" />
<rect x="27" y="45" width="1" height="2" fill="#9FBCD1" />
<rect x="28" y="45" width="16" height="1" fill="#9EBBCF" />
<rect x="44" y="45" width="2" height="1" fill="#B5D1E3" />
<rect x="46" y="45" width="1" height="1" fill="#9AB8CD" />
<rect x="47" y="45" width="1" height="1" fill="#6688A4" />
<rect x="48" y="45" width="1" height="2" fill="#446782" />
<rect x="49" y="45" width="1" height="1" fill="#6688A4" />
<rect x="52" y="45" width="1" height="1" fill="#6F8D74" />
<rect x="14" y="46" width="1" height="1" fill="#576872" />
<rect x="16" y="46" width="2" height="1" fill="#667985" />
<rect x="18" y="46" width="1" height="1" fill="#52626B" />
<rect x="19" y="46" width="3" height="1" fill="#667985" />
<rect x="22" y="46" width="4" height="1" fill="#829DB0" />
<rect x="26" y="46" width="1" height="7" fill="#9EBBCF" />
<rect x="28" y="46" width="1" height="1" fill="#9FBCD1" />
<rect x="29" y="46" width="18" height="1" fill="#9EBBCF" />
<rect x="47" y="46" width="1" height="1" fill="#B5D1E3" />
<rect x="49" y="46" width="1" height="1" fill="#446782" />
<rect x="50" y="46" width="1" height="1" fill="#9EBBCF" />
<rect x="51" y="46" width="1" height="1" fill="#6F8D74" />
<rect x="52" y="46" width="1" height="1" fill="#9EBBCF" />
<rect x="53" y="46" width="1" height="1" fill="#6F8D74" />
<rect x="54" y="46" width="1" height="1" fill="#596D6D" />
<rect x="55" y="46" width="1" height="1" fill="#667985" />
<rect x="13" y="47" width="1" height="2" fill="#667985" />
<rect x="14" y="47" width="3" height="3" fill="#9EBBCF" />
<rect x="17" y="47" width="1" height="1" fill="#596D6D" />
<rect x="18" y="47" width="2" height="1" fill="#547240" />
<rect x="20" y="47" width="2" height="1" fill="#6F8D74" />
<rect x="22" y="47" width="4" height="6" fill="#9EBBCF" />
<rect x="27" y="47" width="2" height="6" fill="#9EBBCF" />
<rect x="29" y="47" width="1" height="1" fill="#9FBCD1" />
<rect x="30" y="47" width="19" height="6" fill="#9EBBCF" />
<rect x="49" y="47" width="2" height="1" fill="#667985" />
<rect x="51" y="47" width="1" height="1" fill="#9EBBCF" />
<rect x="52" y="47" width="1" height="1" fill="#6F8D74" />
<rect x="53" y="47" width="1" height="1" fill="#667985" />
<rect x="54" y="47" width="1" height="1" fill="#5C7A4F" />
<rect x="55" y="47" width="1" height="1" fill="#516F3A" />
<rect x="56" y="47" width="1" height="1" fill="#667985" />
<rect x="17" y="48" width="1" height="2" fill="#667985" />
<rect x="18" y="48" width="1" height="2" fill="#5C7A4F" />
<rect x="19" y="48" width="1" height="1" fill="#516F3A" />
<rect x="20" y="48" width="1" height="1" fill="#6F8D74" />
<rect x="21" y="48" width="1" height="5" fill="#9EBBCF" />
<rect x="29" y="48" width="1" height="5" fill="#9EBBCF" />
<rect x="49" y="48" width="2" height="5" fill="#9EBBCF" />
<rect x="51" y="48" width="2" height="1" fill="#667985" />
<rect x="53" y="48" width="1" height="2" fill="#6F8D74" />
<rect x="54" y="48" width="1" height="1" fill="#516F3A" />
<rect x="55" y="48" width="1" height="1" fill="#4F6D37" />
<rect x="56" y="48" width="1" height="1" fill="#6F8D74" />
<rect x="57" y="48" width="1" height="1" fill="#70838E" />
<rect x="58" y="48" width="1" height="2" fill="#C6E0F1" />
<rect x="13" y="49" width="1" height="1" fill="#B8D4E6" />
<rect x="19" y="49" width="1" height="2" fill="#6F8D74" />
<rect x="20" y="49" width="1" height="3" fill="#9EBBCF" />
<rect x="51" y="49" width="1" height="1" fill="#9EBBCF" />
<rect x="52" y="49" width="1" height="1" fill="#6F8D74" />
<rect x="54" y="49" width="1" height="1" fill="#5C7A4F" />
<rect x="55" y="49" width="1" height="2" fill="#6F8D74" />
<rect x="56" y="49" width="1" height="1" fill="#5C7A4F" />
<rect x="57" y="49" width="1" height="1" fill="#5A6A74" />
<rect x="11" y="50" width="1" height="6" fill="#778B98" opacity="0.666667" />
<rect x="13" y="50" width="1" height="2" fill="#B8D3E6" />
<rect x="14" y="50" width="2" height="1" fill="#B8D4E6" />
<rect x="16" y="50" width="2" height="1" fill="#9EBBCF" />
<rect x="18" y="50" width="1" height="1" fill="#667985" />
<rect x="51" y="50" width="1" height="1" fill="#6F8D74" />
<rect x="52" y="50" width="3" height="3" fill="#9EBBCF" />
<rect x="56" y="50" width="1" height="1" fill="#6F8D74" />
<rect x="57" y="50" width="1" height="1" fill="#55666C" />
<rect x="58" y="50" width="1" height="1" fill="#6A7D89" />
<rect x="14" y="51" width="1" height="1" fill="#9CBAD0" />
<rect x="15" y="51" width="1" height="1" fill="#C6E0F1" />
<rect x="16" y="51" width="1" height="2" fill="#B8D4E6" />
<rect x="17" y="51" width="2" height="2" fill="#9EBBCF" />
<rect x="19" y="51" width="1" height="1" fill="#667985" />
<rect x="51" y="51" width="1" height="2" fill="#9EBBCF" />
<rect x="55" y="51" width="1" height="1" fill="#9EBBCF" />
<rect x="56" y="51" width="1" height="1" fill="#5C7070" />
<rect x="57" y="51" width="1" height="1" fill="#6A7D89" />
<rect x="58" y="51" width="1" height="2" fill="#617481" />
<rect x="59" y="51" width="1" height="3" fill="#455662" />
<rect x="13" y="52" width="1" height="1" fill="#C6E0F2" />
<rect x="14" y="52" width="1" height="5" fill="#6688A4" />
<rect x="15" y="52" width="1" height="1" fill="#9CBAD0" />
<rect x="19" y="52" width="1" height="1" fill="#9EBBCF" />
<rect x="20" y="52" width="1" height="1" fill="#667985" />
<rect x="55" y="52" width="1" height="1" fill="#667985" />
<rect x="56" y="52" width="1" height="2" fill="#C6E0F1" />
<rect x="57" y="52" width="1" height="1" fill="#76937A" />
<rect x="13" y="53" width="1" height="4" fill="#9CBAD0" />
<rect x="15" y="53" width="2" height="6" fill="#6688A4" />
<rect x="17" y="53" width="1" height="1" fill="#B8D4E6" />
<rect x="18" y="53" width="1" height="1" fill="#C6E0F1" />
<rect x="19" y="53" width="1" height="1" fill="#B8D4E6" />
<rect x="20" y="53" width="1" height="1" fill="#6D808B" />
<rect x="21" y="53" width="33" height="1" fill="#B8D4E6" />
<rect x="54" y="53" width="1" height="1" fill="#70838E" />
<rect x="55" y="53" width="1" height="2" fill="#C6E0F1" />
<rect x="57" y="53" width="1" height="1" fill="#3F604D" />
<rect x="58" y="53" width="1" height="1" fill="#8BA9BE" />
<rect x="17" y="54" width="1" height="1" fill="#9CBAD0" />
<rect x="18" y="54" width="1" height="1" fill="#B8D3E6" />
<rect x="19" y="54" width="1" height="1" fill="#657985" />
<rect x="20" y="54" width="13" height="1" fill="#9CBAD0" />
<rect x="33" y="54" width="5" height="1" fill="#8BA9BE" />
<rect x="38" y="54" width="2" height="1" fill="#9CBAD0" />
<rect x="40" y="54" width="13" height="1" fill="#8BA9BE" />
<rect x="53" y="54" width="1" height="1" fill="#566770" />
<rect x="54" y="54" width="1" height="1" fill="#8BA9BE" />
<rect x="56" y="54" width="2" height="3" fill="#2B516E" />
<rect x="58" y="54" width="1" height="2" fill="#5E717E" />
<rect x="59" y="54" width="1" height="4" fill="#26394D" />
<rect x="17" y="55" width="2" height="1" fill="#6688A4" />
<rect x="19" y="55" width="1" height="1" fill="#53646F" />
<rect x="20" y="55" width="13" height="2" fill="#6688A4" />
<rect x="33" y="55" width="5" height="1" fill="#446782" />
<rect x="38" y="55" width="2" height="4" fill="#6688A4" />
<rect x="40" y="55" width="13" height="4" fill="#446782" />
<rect x="53" y="55" width="1" height="1" fill="#4E5F6B" />
<rect x="54" y="55" width="2" height="4" fill="#2B516E" />
<rect x="11" y="56" width="1" height="1" fill="#778B98" opacity="0.890196" />
<rect x="17" y="56" width="1" height="1" fill="#6688A4" />
<rect x="18" y="56" width="2" height="1" fill="#576C7A" />
<rect x="33" y="56" width="2" height="3" fill="#446782" />
<rect x="35" y="56" width="3" height="3" fill="#2B516E" />
<rect x="53" y="56" width="1" height="3" fill="#475C6C" />
<rect x="58" y="56" width="1" height="1" fill="#6A7D88" />
<rect x="13" y="57" width="2" height="1" fill="#26394D" />
<rect x="17" y="57" width="1" height="2" fill="#576C7A" />
<rect x="18" y="57" width="2" height="2" fill="#6688A4" />
<rect x="20" y="57" width="1" height="1" fill="#576C7A" />
<rect x="21" y="57" width="12" height="1" fill="#6688A4" />
<rect x="56" y="57" width="1" height="2" fill="#2B516E" />
<rect x="57" y="57" width="2" height="1" fill="#26394D" />
<rect x="13" y="58" width="1" height="1" fill="#859AA7" opacity="0.890196" />
<rect x="14" y="58" width="1" height="2" fill="#26394D" />
<rect x="20" y="58" width="1" height="1" fill="#6688A4" />
<rect x="21" y="58" width="1" height="1" fill="#576C7A" />
<rect x="22" y="58" width="11" height="1" fill="#6688A4" />
<rect x="57" y="58" width="1" height="2" fill="#26394D" />
<rect x="58" y="58" width="1" height="1" fill="#54636C" opacity="0.890196" />
<rect x="59" y="58" width="1" height="1" fill="#778B98" opacity="0.666667" />
<rect x="15" y="59" width="2" height="1" fill="#26394D" />
<rect x="17" y="59" width="1" height="1" fill="#455662" />
<rect x="18" y="59" width="4" height="1" fill="#26394D" />
<rect x="22" y="59" width="1" height="1" fill="#455662" />
<rect x="23" y="59" width="34" height="1" fill="#26394D" />
<rect x="58" y="59" width="1" height="1" fill="#778B98" opacity="0.666667" />
<rect x="15" y="60" width="15" height="1" fill="#778B98" opacity="0.666667" />
<rect x="30" y="60" width="5" height="1" fill="#778B98" opacity="0.890196" />
<rect x="35" y="60" width="1" height="1" fill="#778B98" opacity="0.964706" />
<rect x="36" y="60" width="3" height="1" fill="#778B98" opacity="0.890196" />
<rect x="39" y="60" width="5" height="1" fill="#566670" opacity="0.964706" />
<rect x="44" y="60" width="2" height="1" fill="#54636C" opacity="0.890196" />
<rect x="46" y="60" width="3" height="1" fill="#566670" opacity="0.964706" />
<rect x="49" y="60" width="3" height="1" fill="#778B98" opacity="0.890196" />
<rect x="52" y="60" width="5" height="1" fill="#778B98" opacity="0.666667" />
<rect x="57" y="60" width="1" height="1" fill="#778B98" opacity="0.890196" />
</svg>