<?xml version="1.0" encoding="UTF-8" ?>
<svg version="1.1" width="72" height="72" xmlns="http://www.w3.org/2000/svg" shape-rendering="crispEdges">
<rect x="15" y="19" width="2" height="1" fill="#778B98" opacity="0.666667" />
<rect x="17" y="19" width="1" height="1" fill="#54636C" opacity="0.890196" />
<rect x="18" y="19" width="1" height="1" fill="#778B98" opacity="0.666667" />
<rect x="19" y="19" width="1" height="1" fill="#778B98" opacity="0.890196" />
<rect x="20" y="19" width="7" height="1" fill="#778B98" opacity="0.666667" />
<rect x="27" y="19" width="4" height="1" fill="#54636C" opacity="0.890196" />
<rect x="31" y="19" width="1" height="1" fill="#566670" opacity="0.964706" />
<rect x="32" y="19" width="1" height="1" fill="#778B98" opacity="0.666667" />
<rect x="33" y="19" width="3" height="1" fill="#778B98" opacity="0.890196" />
<rect x="36" y="19" width="1" height="1" fill="#566670" opacity="0.964706" />
<rect x="37" y="19" width="3" height="1" fill="#54636C" opacity="0.890196" />
<rect x="40" y="19" width="1" height="1" fill="#49575F" opacity="0.988235" />
<rect x="41" y="19" width="3" height="1" fill="#54636C" opacity="0.890196" />
<rect x="44" y="19" width="12" height="1" fill="#778B98" opacity="0.666667" />
<rect x="14" y="20" width="1" height="1" fill="#778B98" opacity="0.666667" />
<rect x="15" y="20" width="2" height="1" fill="#253D51" />
<rect x="17" y="20" width="40" height="1" fill="#26394D" />
<rect x="57" y="20" width="1" height="1" fill="#778B98" opacity="0.666667" />
<rect x="13" y="21" width="1" height="1" fill="#778B98" opacity="0.666667" />
<rect x="14" y="21" width="1" height="1" fill="#253D51" />
<rect x="15" y="21" width="2" height="1" fill="#284962" />
<rect x="17" y="21" width="21" height="1" fill="#2B516E" />
<rect x="38" y="21" width="1" height="4" fill="#1F405A" />
<rect x="39" y="21" width="3" height="1" fill="#142D40" />
<rect x="42" y="21" width="1" height="4" fill="#1F405A" />
<rect x="43" y="21" width="1" height="4" fill="#2B516E" />
<rect x="44" y="21" width="2" height="4" fill="#1F405A" />
<rect x="46" y="21" width="1" height="4" fill="#142D40" />
<rect x="47" y="21" width="3" height="1" fill="#0D2231" />
<rect x="50" y="21" width="7" height="1" fill="#142D40" />
<rect x="57" y="21" width="1" height="1" fill="#26394D" />
<rect x="58" y="21" width="1" height="1" fill="#778B98" opacity="0.666667" />
<rect x="12" y="22" width="1" height="1" fill="#778B98" opacity="0.666667" />
<rect x="13" y="22" width="1" height="1" fill="#26394D" />
<rect x="14" y="22" width="2" height="6" fill="#284962" />
<rect x="16" y="22" width="1" height="5" fill="#2B516E" />
<rect x="17" y="22" width="21" height="1" fill="#1F405A" />
<rect x="39" y="22" width="1" height="3" fill="#0D2231" />
<rect x="40" y="22" width="2" height="3" fill="#142D40" />
<rect x="47" y="22" width="1" height="3" fill="#142D40" />
<rect x="48" y="22" width="1" height="2" fill="#091B29" />
<rect x="49" y="22" width="1" height="4" fill="#0D2231" />
<rect x="50" y="22" width="6" height="3" fill="#142D40" />
<rect x="56" y="22" width="2" height="5" fill="#1C374B" />
<rect x="58" y="22" width="1" height="1" fill="#26394D" />
<rect x="12" y="23" width="1" height="2" fill="#26394D" />
<rect x="13" y="23" width="1" height="8" fill="#284962" />
<rect x="17" y="23" width="21" height="2" fill="#2B516E" />
<rect x="58" y="23" width="1" height="1" fill="#142D40" />
<rect x="59" y="23" width="1" height="3" fill="#26394D" />
<rect x="11" y="24" width="1" height="13" fill="#778B98" opacity="0.666667" />
<rect x="48" y="24" width="1" height="1" fill="#0D2231" />
<rect x="58" y="24" width="1" height="5" fill="#1C374B" />
<rect x="60" y="24" width="1" height="3" fill="#778B98" opacity="0.666667" />
<rect x="12" y="25" width="1" height="12" fill="#253D51" />
<rect x="17" y="25" width="4" height="1" fill="#2B516E" />
<rect x="21" y="25" width="4" height="1" fill="#406480" />
<rect x="25" y="25" width="1" height="10" fill="#637582" />
<rect x="26" y="25" width="12" height="1" fill="#406480" />
<rect x="38" y="25" width="1" height="1" fill="#3B5C77" />
<rect x="39" y="25" width="1" height="1" fill="#36536B" />
<rect x="40" y="25" width="2" height="1" fill="#374D5C" />
<rect x="42" y="25" width="1" height="1" fill="#28455D" />
<rect x="43" y="25" width="1" height="1" fill="#2B4A61" />
<rect x="44" y="25" width="1" height="1" fill="#28455D" />
<rect x="45" y="25" width="1" height="1" fill="#395060" />
<rect x="46" y="25" width="2" height="1" fill="#374F5E" />
<rect x="48" y="25" width="1" height="1" fill="#324E64" />
<rect x="50" y="25" width="4" height="1" fill="#314756" />
<rect x="54" y="25" width="2" height="1" fill="#142D40" />
<rect x="17" y="26" width="1" height="1" fill="#425663" />
<rect x="18" y="26" width="2" height="1" fill="#374B38" />
<rect x="20" y="26" width="1" height="1" fill="#34482E" />
<rect x="21" y="26" width="1" height="3" fill="#3E523F" />
<rect x="22" y="26" width="1" height="1" fill="#364A30" />
<rect x="23" y="26" width="1" height="1" fill="#3E523F" />
<rect x="24" y="26" width="1" height="19" fill="#637582" />
<rect x="26" y="26" width="16" height="3" fill="#637582" />
<rect x="42" y="26" width="1" height="1" fill="#475B68" />
<rect x="43" y="26" width="4" height="1" fill="#637582" />
<rect x="47" y="26" width="8" height="1" fill="#4E616E" />
<rect x="55" y="26" width="1" height="1" fill="#314756" />
<rect x="59" y="26" width="1" height="5" fill="#182939" />
<rect x="16" y="27" width="1" height="1" fill="#425663" />
<rect x="17" y="27" width="1" height="1" fill="#34482E" />
<rect x="18" y="27" width="3" height="1" fill="#3E523F" />
<rect x="22" y="27" width="1" height="1" fill="#3E523F" />
<rect x="23" y="27" width="1" height="31" fill="#637582" />
<rect x="42" y="27" width="1" height="9" fill="#637582" />
<rect x="43" y="27" width="2" height="1" fill="#475B68" />
<rect x="45" y="27" width="9" height="1" fill="#637582" />
<rect x="54" y="27" width="2" height="1" fill="#4E616E" />
<rect x="56" y="27" width="1" height="1" fill="#344B5A" />
<rect x="57" y="27" width="1" height="1" fill="#1C374B" />
<rect x="60" y="27" width="1" height="5" fill="#778B98" opacity="0.890196" />
<rect x="14" y="28" width="1" height="2" fill="#284962" />
<rect x="15" y="28" width="1" height="4" fill="#425663" />
<rect x="16" y="28" width="2" height="1" fill="#374B38" />
<rect x="18" y="28" width="1" height="1" fill="#364A30" />
<rect x="19" y="28" width="2" height="1" fill="#3E523F" />
<rect x="22" y="28" width="1" height="30" fill="#637582" />
<rect x="43" y="28" width="2" height="9" fill="#637582" />
<rect x="45" y="28" width="2" height="1" fill="#475B68" />
<rect x="47" y="28" width="8" height="1" fill="#637582" />
<rect x="55" y="28" width="2" height="1" fill="#4E616E" />
<rect x="57" y="28" width="1" height="1" fill="#344B5A" />
<rect x="16" y="29" width="1" height="1" fill="#374B38" />
<rect x="17" y="29" width="3" height="1" fill="#637582" />
<rect x="20" y="29" width="1" height="1" fill="#3E523F" />
<rect x="21" y="29" width="1" height="29" fill="#637582" />
<rect x="26" y="29" width="5" height="1" fill="#637582" />
<rect x="31" y="29" width="1" height="1" fill="#647683" />
<rect x="32" y="29" width="10" height="4" fill="#637582" />
<rect x="45" y="29" width="2" height="3" fill="#637582" />
<rect x="47" y="29" width="1" height="4" fill="#475B68" />
<rect x="48" y="29" width="8" height="4" fill="#637582" />
<rect x="56" y="29" width="1" height="1" fill="#4E616E" />
<rect x="57" y="29" width="1" height="1" fill="#425663" />
<rect x="58" y="29" width="1" height="1" fill="#344B5A" />
<rect x="14" y="30" width="1" height="11" fill="#425663" />
<rect x="16" y="30" width="2" height="13" fill="#637582" />
<rect x="18" y="30" width="1" height="2" fill="#3E523F" />
<rect x="19" y="30" width="2" height="1" fill="#637582" />
<rect x="26" y="30" width="4" height="1" fill="#637582" />
<rect x="30" y="30" width="1" height="1" fill="#647683" />
<rect x="31" y="30" width="1" height="5" fill="#637582" />
<rect x="56" y="30" width="1" height="1" fill="#5B7589" />
<rect x="57" y="30" width="1" height="1" fill="#4E616E" />
<rect x="58" y="30" width="1" height="1" fill="#425663" />
<rect x="13" y="31" width="1" height="4" fill="#425663" />
<rect x="19" y="31" width="1" height="5" fill="#637582" />
<rect x="20" y="31" width="1" height="1" fill="#3E523F" />
<rect x="26" y="31" width="3" height="6" fill="#637582" />
<rect x="29" y="31" width="1" height="1" fill="#647683" />
<rect x="30" y="31" width="1" height="4" fill="#637582" />
<rect x="56" y="31" width="2" height="4" fill="#637582" />
<rect x="58" y="31" width="1" height="1" fill="#445865" />
<rect x="59" y="31" width="1" height="2" fill="#334654" />
<rect x="15" y="32" width="1" height="1" fill="#556570" />
<rect x="18" y="32" width="1" height="7" fill="#637582" />
<rect x="20" y="32" width="1" height="26" fill="#637582" />
<rect x="29" y="32" width="1" height="4" fill="#637582" />
<rect x="45" y="32" width="1" height="27" fill="#637582" />
<rect x="46" y="32" width="1" height="1" fill="#3E523F" />
<rect x="58" y="32" width="1" height="1" fill="#425663" />
<rect x="60" y="32" width="1" height="1" fill="#778B98" opacity="0.666667" />
<rect x="15" y="33" width="1" height="1" fill="#425663" />
<rect x="32" y="33" width="2" height="3" fill="#637582" />
<rect x="34" y="33" width="4" height="1" fill="#142D40" />
<rect x="38" y="33" width="4" height="2" fill="#637582" />
<rect x="46" y="33" width="1" height="26" fill="#637582" />
<rect x="47" y="33" width="1" height="1" fill="#3E5257" />
<rect x="48" y="33" width="2" height="1" fill="#3E523F" />
<rect x="50" y="33" width="1" height="1" fill="#4D6473" />
<rect x="51" y="33" width="3" height="1" fill="#475B68" />
<rect x="54" y="33" width="2" height="1" fill="#637582" />
<rect x="58" y="33" width="1" height="1" fill="#3F5564" />
<rect x="59" y="33" width="1" height="5" fill="#425663" />
<rect x="60" y="33" width="1" height="6" fill="#54636C" opacity="0.890196" />
<rect x="15" y="34" width="1" height="3" fill="#637582" />
<rect x="34" y="34" width="1" height="2" fill="#1F405A" />
<rect x="35" y="34" width="2" height="6" fill="#2B516E" />
<rect x="37" y="34" width="1" height="1" fill="#142D40" />
<rect x="47" y="34" width="1" height="1" fill="#475B68" />
<rect x="48" y="34" width="1" height="1" fill="#445A48" />
<rect x="49" y="34" width="1" height="1" fill="#3F5459" />
<rect x="50" y="34" width="1" height="1" fill="#364A30" />
<rect x="51" y="34" width="3" height="1" fill="#445A48" />
<rect x="54" y="34" width="1" height="1" fill="#475B68" />
<rect x="55" y="34" width="1" height="1" fill="#637582" />
<rect x="58" y="34" width="1" height="3" fill="#425663" />
<rect x="13" y="35" width="1" height="1" fill="#314554" />
<rect x="25" y="35" width="1" height="1" fill="#637683" />
<rect x="30" y="35" width="2" height="2" fill="#142D40" />
<rect x="37" y="35" width="1" height="2" fill="#1F405A" />
<rect x="38" y="35" width="2" height="1" fill="#637582" />
<rect x="40" y="35" width="1" height="1" fill="#1F405A" />
<rect x="41" y="35" width="1" height="2" fill="#142D40" />
<rect x="47" y="35" width="1" height="23" fill="#637582" />
<rect x="48" y="35" width="1" height="1" fill="#4D6473" />
<rect x="49" y="35" width="1" height="1" fill="#475B68" />
<rect x="50" y="35" width="1" height="1" fill="#34492D" />
<rect x="51" y="35" width="1" height="1" fill="#34482C" />
<rect x="52" y="35" width="2" height="1" fill="#3E523F" />
<rect x="54" y="35" width="1" height="1" fill="#445A48" />
<rect x="55" y="35" width="1" height="1" fill="#475B68" />
<rect x="56" y="35" width="1" height="1" fill="#637582" />
<rect x="57" y="35" width="1" height="1" fill="#7D99AE" />
<rect x="13" y="36" width="1" height="3" fill="#42596A" />
<rect x="19" y="36" width="1" height="2" fill="#627583" />
<rect x="25" y="36" width="1" height="22" fill="#637582" />
<rect x="29" y="36" width="1" height="2" fill="#142D40" />
<rect x="32" y="36" width="3" height="1" fill="#142D40" />
<rect x="38" y="36" width="3" height="1" fill="#142D40" />
<rect x="42" y="36" width="1" height="1" fill="#142D40" />
<rect x="48" y="36" width="1" height="4" fill="#475B68" />
<rect x="49" y="36" width="1" height="1" fill="#445A48" />
<rect x="50" y="36" width="1" height="1" fill="#364A30" />
<rect x="51" y="36" width="2" height="1" fill="#3E523F" />
<rect x="53" y="36" width="2" height="1" fill="#637582" />
<rect x="55" y="36" width="1" height="1" fill="#7D99AE" />
<rect x="56" y="36" width="2" height="1" fill="#4D6473" />
<rect x="11" y="37" width="1" height="3" fill="#778B98" opacity="0.890196" />
<rect x="12" y="37" width="1" height="7" fill="#1F3344" />
<rect x="15" y="37" width="1" height="4" fill="#465A67" />
<rect x="26" y="37" width="2" height="4" fill="#637582" />
<rect x="28" y="37" width="1" height="2" fill="#1F405A" />
<rect x="30" y="37" width="2" height="3" fill="#2B516E" />
<rect x="32" y="37" width="1" height="1" fill="#1F405A" />
<rect x="33" y="37" width="1" height="1" fill="#142D40" />
<rect x="34" y="37" width="1" height="4" fill="#2B516E" />
<rect x="37" y="37" width="2" height="3" fill="#2B516E" />
<rect x="39" y="37" width="1" height="1" fill="#1F405A" />
<rect x="40" y="37" width="3" height="3" fill="#2B516E" />
<rect x="43" y="37" width="1" height="1" fill="#1F405A" />
<rect x="44" y="37" width="1" height="4" fill="#637582" />
<rect x="49" y="37" width="1" height="1" fill="#3E523F" />
<rect x="50" y="37" width="2" height="10" fill="#637582" />
<rect x="52" y="37" width="2" height="1" fill="#3E523F" />
<rect x="54" y="37" width="2" height="21" fill="#637582" />
<rect x="56" y="37" width="3" height="1" fill="#7D99AE" />
<rect x="19" y="38" width="1" height="2" fill="#637582" />
<rect x="29" y="38" width="1" height="2" fill="#2B516E" />
<rect x="32" y="38" width="2" height="4" fill="#2B516E" />
<rect x="39" y="38" width="1" height="4" fill="#2B516E" />
<rect x="43" y="38" width="1" height="1" fill="#2B516E" />
<rect x="49" y="38" width="1" height="15" fill="#637582" />
<rect x="52" y="38" width="1" height="1" fill="#3E523F" />
<rect x="53" y="38" width="1" height="20" fill="#637582" />
<rect x="56" y="38" width="2" height="20" fill="#637582" />
<rect x="58" y="38" width="1" height="2" fill="#425663" />
<rect x="59" y="38" width="1" height="3" fill="#3F5360" />
<rect x="13" y="39" width="1" height="3" fill="#425A6B" />
<rect x="18" y="39" width="1" height="2" fill="#627583" />
<rect x="28" y="39" width="1" height="2" fill="#637582" />
<rect x="43" y="39" width="1" height="2" fill="#637582" />
<rect x="52" y="39" width="1" height="19" fill="#637582" />
<rect x="60" y="39" width="1" height="19" fill="#778B98" opacity="0.666667" />
<rect x="11" y="40" width="1" height="2" fill="#54636C" opacity="0.890196" />
<rect x="19" y="40" width="1" height="2" fill="#445865" />
<rect x="29" y="40" width="1" height="1" fill="#637582" />
<rect x="30" y="40" width="1" height="1" fill="#142D40" />
<rect x="31" y="40" width="1" height="11" fill="#2B516E" />
<rect x="35" y="40" width="1" height="1" fill="#1E3C53" />
<rect x="36" y="40" width="1" height="1" fill="#193449" />
<rect x="37" y="40" width="1" height="1" fill="#1F3E55" />
<rect x="38" y="40" width="1" height="1" fill="#2B516E" />
<rect x="40" y="40" width="2" height="11" fill="#2B516E" />
<rect x="42" y="40" width="1" height="1" fill="#637582" />
<rect x="48" y="40" width="1" height="17" fill="#637582" />
<rect x="58" y="40" width="1" height="3" fill="#708DA3" />
<rect x="14" y="41" width="1" height="1" fill="#3C505D" />
<rect x="15" y="41" width="1" height="1" fill="#3D525F" />
<rect x="18" y="41" width="1" height="2" fill="#435865" />
<rect x="26" y="41" width="1" height="17" fill="#637582" />
<rect x="27" y="41" width="3" height="1" fill="#142D40" />
<rect x="30" y="41" width="1" height="2" fill="#1F405A" />
<rect x="34" y="41" width="1" height="1" fill="#465A6A" />
<rect x="35" y="41" width="2" height="1" fill="#516471" />
<rect x="37" y="41" width="1" height="2" fill="#637582" />
<rect x="38" y="41" width="1" height="1" fill="#1F3E55" />
<rect x="42" y="41" width="3" height="2" fill="#142D40" />
<rect x="59" y="41" width="1" height="1" fill="#3C515F" />
<rect x="11" y="42" width="1" height="3" fill="#566670" opacity="0.964706" />
<rect x="13" y="42" width="1" height="1" fill="#425663" />
<rect x="14" y="42" width="1" height="1" fill="#465A67" />
<rect x="15" y="42" width="1" height="2" fill="#637582" />
<rect x="19" y="42" width="1" height="2" fill="#637582" />
<rect x="27" y="42" width="1" height="1" fill="#1F405A" />
<rect x="28" y="42" width="1" height="1" fill="#142D40" />
<rect x="29" y="42" width="1" height="1" fill="#1F405A" />
<rect x="32" y="42" width="1" height="8" fill="#2B516E" />
<rect x="33" y="42" width="1" height="1" fill="#1E3C53" />
<rect x="34" y="42" width="1" height="1" fill="#4E616F" />
<rect x="35" y="42" width="1" height="1" fill="#516471" />
<rect x="36" y="42" width="1" height="4" fill="#637582" />
<rect x="38" y="42" width="1" height="1" fill="#354937" />
<rect x="39" y="42" width="1" height="1" fill="#2D4332" />
<rect x="59" y="42" width="1" height="1" fill="#3A505F" />
<rect x="13" y="43" width="1" height="1" fill="#3C505D" />
<rect x="14" y="43" width="1" height="2" fill="#637582" />
<rect x="16" y="43" width="1" height="1" fill="#637582" />
<rect x="17" y="43" width="1" height="1" fill="#445865" />
<rect x="18" y="43" width="1" height="4" fill="#627583" />
<rect x="27" y="43" width="4" height="2" fill="#2B516E" />
<rect x="33" y="43" width="1" height="3" fill="#1F405A" />
<rect x="34" y="43" width="1" height="2" fill="#516471" />
<rect x="35" y="43" width="1" height="3" fill="#637582" />
<rect x="37" y="43" width="2" height="2" fill="#3E523F" />
<rect x="39" y="43" width="1" height="1" fill="#19354A" />
<rect x="42" y="43" width="3" height="2" fill="#2B516E" />
<rect x="58" y="43" width="1" height="2" fill="#748D9F" />
<rect x="59" y="43" width="1" height="1" fill="#1E3447" />
<rect x="12" y="44" width="1" height="1" fill="#2F4452" />
<rect x="13" y="44" width="1" height="2" fill="#425663" />
<rect x="15" y="44" width="1" height="1" fill="#445865" />
<rect x="16" y="44" width="1" height="1" fill="#3F5360" />
<rect x="17" y="44" width="1" height="13" fill="#637582" />
<rect x="19" y="44" width="1" height="2" fill="#627583" />
<rect x="39" y="44" width="1" height="1" fill="#1F3E55" />
<rect x="59" y="44" width="1" height="1" fill="#26394D" />
<rect x="11" y="45" width="1" height="5" fill="#54636C" opacity="0.890196" />
<rect x="12" y="45" width="1" height="1" fill="#2D3F4C" />
<rect x="14" y="45" width="1" height="1" fill="#445865" />
<rect x="15" y="45" width="1" height="2" fill="#7D99AE" />
<rect x="16" y="45" width="1" height="1" fill="#445865" />
<rect x="24" y="45" width="1" height="1" fill="#627583" />
<rect x="27" y="45" width="3" height="1" fill="#637582" />
<rect x="30" y="45" width="1" height="6" fill="#2B516E" />
<rect x="34" y="45" width="1" height="2" fill="#1F405A" />
<rect x="37" y="45" width="1" height="1" fill="#3E523F" />
<rect x="38" y="45" width="2" height="1" fill="#0D2231" />
<rect x="42" y="45" width="1" height="6" fill="#2B516E" />
<rect x="43" y="45" width="2" height="2" fill="#637582" />
<rect x="58" y="45" width="1" height="1" fill="#415664" />
<rect x="59" y="45" width="1" height="1" fill="#556E84" />
<rect x="12" y="46" width="1" height="2" fill="#182431" />
<rect x="13" y="46" width="1" height="3" fill="#3E5360" />
<rect x="14" y="46" width="1" height="4" fill="#637582" />
<rect x="16" y="46" width="1" height="2" fill="#485E6C" />
<rect x="19" y="46" width="1" height="12" fill="#637582" />
<rect x="24" y="46" width="1" height="12" fill="#637582" />
<rect x="27" y="46" width="2" height="2" fill="#637582" />
<rect x="29" y="46" width="1" height="4" fill="#2B516E" />
<rect x="33" y="46" width="1" height="4" fill="#2B516E" />
<rect x="35" y="46" width="1" height="1" fill="#1F405A" />
<rect x="36" y="46" width="1" height="1" fill="#0D2231" />
<rect x="37" y="46" width="1" height="1" fill="#2A3E2D" />
<rect x="38" y="46" width="1" height="1" fill="#0D2231" />
<rect x="39" y="46" width="1" height="4" fill="#2B516E" />
<rect x="58" y="46" width="1" height="1" fill="#4B616F" />
<rect x="59" y="46" width="1" height="2" fill="#435969" />
<rect x="15" y="47" width="1" height="1" fill="#637582" />
<rect x="18" y="47" width="1" height="10" fill="#637582" />
<rect x="34" y="47" width="5" height="3" fill="#2B516E" />
<rect x="43" y="47" width="1" height="3" fill="#2B516E" />
<rect x="44" y="47" width="1" height="12" fill="#637582" />
<rect x="50" y="47" width="1" height="4" fill="#637582" />
<rect x="51" y="47" width="1" height="2" fill="#475B68" />
<rect x="58" y="47" width="1" height="1" fill="#748D9F" />
<rect x="12" y="48" width="1" height="1" fill="#2D3F4C" />
<rect x="15" y="48" width="1" height="1" fill="#7D99AE" />
<rect x="16" y="48" width="1" height="1" fill="#445865" />
<rect x="27" y="48" width="1" height="10" fill="#637582" />
<rect x="28" y="48" width="1" height="1" fill="#2B516E" />
<rect x="58" y="48" width="1" height="1" fill="#7D99AE" />
<rect x="59" y="48" width="1" height="1" fill="#374B5A" />
<rect x="12" y="49" width="1" height="5" fill="#182431" />
<rect x="13" y="49" width="1" height="2" fill="#425663" />
<rect x="15" y="49" width="1" height="1" fill="#485E6C" />
<rect x="16" y="49" width="1" height="7" fill="#637582" />
<rect x="28" y="49" width="1" height="9" fill="#637582" />
<rect x="51" y="49" width="1" height="2" fill="#405562" />
<rect x="58" y="49" width="1" height="3" fill="#465A67" />
<rect x="59" y="49" width="1" height="5" fill="#26394D" />
<rect x="11" y="50" width="1" height="6" fill="#778B98" opacity="0.666667" />
<rect x="14" y="50" width="1" height="1" fill="#3E535A" />
<rect x="15" y="50" width="1" height="1" fill="#33472B" />
<rect x="29" y="50" width="1" height="8" fill="#637582" />
<rect x="32" y="50" width="2" height="9" fill="#637582" />
<rect x="34" y="50" width="4" height="3" fill="#2B516E" />
<rect x="38" y="50" width="2" height="9" fill="#637582" />
<rect x="43" y="50" width="1" height="9" fill="#637582" />
<rect x="13" y="51" width="1" height="2" fill="#3E535A" />
<rect x="14" y="51" width="2" height="1" fill="#425646" />
<rect x="30" y="51" width="2" height="7" fill="#637582" />
<rect x="40" y="51" width="3" height="8" fill="#637582" />
<rect x="50" y="51" width="1" height="1" fill="#475B68" />
<rect x="51" y="51" width="1" height="6" fill="#637582" />
<rect x="14" y="52" width="1" height="1" fill="#33472B" />
<rect x="15" y="52" width="1" height="1" fill="#637582" />
<rect x="50" y="52" width="1" height="1" fill="#4D6473" />
<rect x="58" y="52" width="1" height="4" fill="#4E616E" />
<rect x="13" y="53" width="1" height="3" fill="#3B5056" />
<rect x="14" y="53" width="1" height="1" fill="#637582" />
<rect x="15" y="53" width="1" height="1" fill="#425646" />
<rect x="34" y="53" width="4" height="6" fill="#637582" />
<rect x="49" y="53" width="1" height="3" fill="#475B68" />
<rect x="50" y="53" width="1" height="4" fill="#7D99AE" />
<rect x="12" y="54" width="1" height="4" fill="#26394D" />
<rect x="14" y="54" width="1" height="1" fill="#33472B" />
<rect x="15" y="54" width="1" height="1" fill="#637582" />
<rect x="59" y="54" width="1" height="2" fill="#384B5B" />
<rect x="14" y="55" width="1" height="1" fill="#425646" />
<rect x="15" y="55" width="1" height="1" fill="#4E616E" />
<rect x="11" y="56" width="1" height="1" fill="#778B98" opacity="0.890196" />
<rect x="13" y="56" width="1" height="1" fill="#425546" />
<rect x="14" y="56" width="1" height="1" fill="#2F4327" />
<rect x="15" y="56" width="1" height="1" fill="#637582" />
<rect x="16" y="56" width="1" height="1" fill="#4E616E" />
<rect x="49" y="56" width="1" height="1" fill="#3E5360" />
<rect x="58" y="56" width="1" height="1" fill="#475B68" />
<rect x="59" y="56" width="1" height="1" fill="#26394D" />
<rect x="13" y="57" width="1" height="1" fill="#263A2E" />
<rect x="14" y="57" width="1" height="1" fill="#425646" />
<rect x="15" y="57" width="1" height="1" fill="#394D3D" />
<rect x="16" y="57" width="1" height="1" fill="#637582" />
<rect x="17" y="57" width="1" height="1" fill="#475A67" />
<rect x="18" y="57" width="1" height="2" fill="#4E616E" />
<rect x="48" y="57" width="1" height="1" fill="#485E6C" />
<rect x="49" y="57" width="1" height="2" fill="#7D99AE" />
<rect x="50" y="57" width="1" height="1" fill="#475B68" />
<rect x="51" y="57" width="1" height="1" fill="#7D99AE" />
<rect x="58" y="57" width="1" height="1" fill="#3E5260" />
<rect x="59" y="57" width="1" height="1" fill="#384B5B" />
<rect x="13" y="58" width="1" height="1" fill="#859AA7" opacity="0.890196" />
<rect x="14" y="58" width="1" height="1" fill="#263A20" />
<rect x="15" y="58" width="1" height="1" fill="#33472B" />
<rect x="16" y="58" width="1" height="1" fill="#2F4327" />
<rect x="17" y="58" width="1" height="1" fill="#4E616E" />
<rect x="19" y="58" width="1" height="1" fill="#475A67" />
<rect x="20" y="58" width="12" height="1" fill="#4E616E" />
<rect x="47" y="58" width="1" height="1" fill="#445865" />
<rect x="48" y="58" width="1" height="1" fill="#7D99AE" />
<rect x="50" y="58" width="1" height="1" fill="#435866" />
<rect x="51" y="58" width="1" height="1" fill="#425663" />
<rect x="52" y="58" width="1" height="1" fill="#4E616E" />
<rect x="53" y="58" width="1" height="1" fill="#586E7E" />
<rect x="54" y="58" width="1" height="1" fill="#556A79" />
<rect x="55" y="58" width="1" height="1" fill="#4E616E" />
<rect x="56" y="58" width="1" height="1" fill="#405461" />
<rect x="57" y="58" width="1" height="1" fill="#3E5260" />
<rect x="58" y="58" width="1" height="1" fill="#54636C" opacity="0.890196" />
<rect x="59" y="58" width="1" height="1" fill="#778B98" opacity="0.666667" />
<rect x="14" y="59" width="1" height="1" fill="#26394D" />
<rect x="15" y="59" width="2" height="1" fill="#263A2E" />
<rect x="17" y="59" width="1" height="1" fill="#263A20" />
<rect x="18" y="59" width="1" height="1" fill="#2A3F23" />
<rect x="19" y="59" width="1" height="1" fill="#384B5B" />
<rect x="20" y="59" width="2" height="1" fill="#3E5260" />
<rect x="22" y="59" width="3" height="1" fill="#3C4F5C" />
<rect x="25" y="59" width="1" height="1" fill="#334451" />
<rect x="26" y="59" width="2" height="1" fill="#182431" />
<rect x="28" y="59" width="4" height="1" fill="#26394D" />
<rect x="32" y="59" width="5" height="1" fill="#384B5B" />
<rect x="37" y="59" width="6" height="1" fill="#26394D" />
<rect x="43" y="59" width="2" height="1" fill="#263A2E" />
<rect x="45" y="59" width="1" height="1" fill="#26394D" />
<rect x="46" y="59" width="1" height="1" fill="#394D5C" />
<rect x="47" y="59" width="1" height="1" fill="#263A2E" />
<rect x="48" y="59" width="2" height="1" fill="#26394D" />
<rect x="50" y="59" width="1" height="1" fill="#435969" />
<rect x="51" y="59" width="2" height="1" fill="#556E84" />
<rect x="53" y="59" width="2" height="1" fill="#26394D" />
<rect x="55" y="59" width="1" height="1" fill="#556E84" />
<rect x="56" y="59" width="1" height="1" fill="#425868" />
<rect x="57" y="59" width="1" height="1" fill="#324655" />
<rect x="58" y="59" width="1" height="1" fill="#778B98" opacity="0.666667" />
<rect x="15" y="60" width="15" height="1" fill="#778B98" opacity="0.666667" />
<rect x="30" y="60" width="5" height="1" fill="#778B98" opacity="0.890196" />
<rect x="35" y="60" width="1" height="1" fill="#778B98" opacity="0.964706" />
<rect x="36" y="60" width="1" height="1" fill="#778B98" opacity="0.890196" />
<rect x="37" y="60" width="2" height="1" fill="#546875" opacity="0.960784" />
<rect x="39" y="60" width="2" height="1" fill="#495C68" opacity="0.988235" />
<rect x="41" y="60" width="3" height="1" fill="#566670" opacity="0.964706" />
<rect x="44" y="60" width="2" height="1" fill="#54636C" opacity="0.890196" />
<rect x="46" y="60" width="3" height="1" fill="#566670" opacity="0.964706" />
<rect x="49" y="60" width="3" height="1" fill="#778B98" opacity="0.890196" />
<rect x="52" y="60" width="5" height="1" fill="#778B98" opacity="0.666667" />
<rect x="57" y="60" width="1" height="1" fill="#778B98" opacity="0.890196" />
</svg>