<?xml version="1.0" encoding="UTF-8" ?>
<svg version="1.1" width="72" height="72" xmlns="http://www.w3.org/2000/svg" shape-rendering="crispEdges">
<rect x="15" y="19" width="2" height="1" fill="#778B98" opacity="0.666667" />
<rect x="17" y="19" width="1" height="1" fill="#54636C" opacity="0.890196" />
<rect x="18" y="19" width="1" height="1" fill="#778B98" opacity="0.666667" />
<rect x="19" y="19" width="1" height="1" fill="#778B98" opacity="0.890196" />
<rect x="20" y="19" width="7" height="1" fill="#778B98" opacity="0.666667" />
<rect x="27" y="19" width="4" height="1" fill="#54636C" opacity="0.890196" />
<rect x="31" y="19" width="1" height="1" fill="#566670" opacity="0.964706" />
<rect x="32" y="19" width="1" height="1" fill="#778B98" opacity="0.666667" />
<rect x="33" y="19" width="3" height="1" fill="#778B98" opacity="0.890196" />
<rect x="36" y="19" width="1" height="1" fill="#566670" opacity="0.964706" />
<rect x="37" y="19" width="3" height="1" fill="#54636C" opacity="0.890196" />
<rect x="40" y="19" width="1" height="1" fill="#49575F" opacity="0.988235" />
<rect x="41" y="19" width="3" height="1" fill="#54636C" opacity="0.890196" />
<rect x="44" y="19" width="12" height="1" fill="#778B98" opacity="0.666667" />
<rect x="14" y="20" width="1" height="1" fill="#778B98" opacity="0.666667" />
<rect x="15" y="20" width="1" height="1" fill="#26394D" />
<rect x="16" y="20" width="1" height="1" fill="#304A34" />
<rect x="17" y="20" width="22" height="1" fill="#26394D" />
<rect x="39" y="20" width="1" height="1" fill="#374B5A" />
<rect x="40" y="20" width="17" height="1" fill="#26394D" />
<rect x="57" y="20" width="1" height="1" fill="#778B98" opacity="0.666667" />
<rect x="13" y="21" width="1" height="1" fill="#778B98" opacity="0.666667" />
<rect x="14" y="21" width="1" height="1" fill="#26394D" />
<rect x="15" y="21" width="1" height="1" fill="#9EBBCF" />
<rect x="16" y="21" width="1" height="1" fill="#4B6A40" />
<rect x="17" y="21" width="1" height="1" fill="#466537" />
<rect x="18" y="21" width="1" height="1" fill="#436138" />
<rect x="19" y="21" width="1" height="1" fill="#34531E" />
<rect x="20" y="21" width="1" height="1" fill="#41602E" />
<rect x="21" y="21" width="1" height="1" fill="#4B6A40" />
<rect x="22" y="21" width="1" height="2" fill="#63826B" />
<rect x="23" y="21" width="1" height="1" fill="#64826B" />
<rect x="24" y="21" width="1" height="1" fill="#9EBBCF" />
<rect x="25" y="21" width="7" height="2" fill="#9DBBD1" />
<rect x="32" y="21" width="7" height="6" fill="#9EBBCF" />
<rect x="39" y="21" width="2" height="1" fill="#495E6B" />
<rect x="41" y="21" width="1" height="1" fill="#6B808D" />
<rect x="42" y="21" width="12" height="2" fill="#9EBBCF" />
<rect x="54" y="21" width="3" height="2" fill="#B8D4E6" />
<rect x="57" y="21" width="1" height="1" fill="#26394D" />
<rect x="58" y="21" width="1" height="1" fill="#778B98" opacity="0.666667" />
<rect x="12" y="22" width="1" height="1" fill="#778B98" opacity="0.666667" />
<rect x="13" y="22" width="1" height="1" fill="#26394D" />
<rect x="14" y="22" width="2" height="1" fill="#64826B" />
<rect x="16" y="22" width="2" height="1" fill="#9EBBCF" />
<rect x="18" y="22" width="2" height="1" fill="#466537" />
<rect x="20" y="22" width="1" height="1" fill="#4B6A40" />
<rect x="21" y="22" width="1" height="1" fill="#63826B" />
<rect x="23" y="22" width="2" height="4" fill="#9DBBD1" />
<rect x="39" y="22" width="1" height="7" fill="#9EBBCF" />
<rect x="40" y="22" width="1" height="1" fill="#53636D" />
<rect x="41" y="22" width="1" height="1" fill="#495E6B" />
<rect x="57" y="22" width="1" height="1" fill="#B8D4E6" />
<rect x="58" y="22" width="1" height="1" fill="#26394D" />
<rect x="12" y="23" width="1" height="19" fill="#26394D" />
<rect x="13" y="23" width="4" height="2" fill="#9EBBCF" />
<rect x="17" y="23" width="1" height="1" fill="#64826B" />
<rect x="18" y="23" width="1" height="1" fill="#9EBBCF" />
<rect x="19" y="23" width="2" height="1" fill="#577657" />
<rect x="21" y="23" width="2" height="3" fill="#9DBBD1" />
<rect x="25" y="23" width="6" height="1" fill="#9DBBD1" />
<rect x="31" y="23" width="1" height="6" fill="#9EBBCF" />
<rect x="40" y="23" width="1" height="6" fill="#9EBBCF" />
<rect x="41" y="23" width="1" height="1" fill="#53636D" />
<rect x="42" y="23" width="2" height="1" fill="#495E6B" />
<rect x="44" y="23" width="1" height="1" fill="#6B808D" />
<rect x="45" y="23" width="11" height="1" fill="#9EBBCF" />
<rect x="56" y="23" width="1" height="1" fill="#B8D4E6" />
<rect x="57" y="23" width="2" height="2" fill="#CDE7F7" />
<rect x="59" y="23" width="1" height="18" fill="#26394D" />
<rect x="11" y="24" width="1" height="13" fill="#778B98" opacity="0.666667" />
<rect x="17" y="24" width="1" height="1" fill="#63826B" />
<rect x="18" y="24" width="3" height="1" fill="#9DBBD1" />
<rect x="25" y="24" width="3" height="1" fill="#9DBBD1" />
<rect x="28" y="24" width="3" height="5" fill="#9EBBCF" />
<rect x="41" y="24" width="3" height="5" fill="#9EBBCF" />
<rect x="44" y="24" width="1" height="1" fill="#556C7B" />
<rect x="45" y="24" width="1" height="1" fill="#495E6B" />
<rect x="46" y="24" width="11" height="1" fill="#9EBBCF" />
<rect x="60" y="24" width="1" height="3" fill="#778B98" opacity="0.666667" />
<rect x="13" y="25" width="3" height="1" fill="#9EBBCF" />
<rect x="16" y="25" width="3" height="4" fill="#9DBBD1" />
<rect x="19" y="25" width="1" height="1" fill="#63826B" />
<rect x="20" y="25" width="1" height="2" fill="#9DBBD1" />
<rect x="25" y="25" width="2" height="1" fill="#9DBBD1" />
<rect x="27" y="25" width="1" height="5" fill="#9EBBCF" />
<rect x="44" y="25" width="2" height="3" fill="#9EBBCF" />
<rect x="46" y="25" width="1" height="2" fill="#495E6B" />
<rect x="47" y="25" width="10" height="3" fill="#9EBBCF" />
<rect x="57" y="25" width="2" height="8" fill="#B8D4E6" />
<rect x="13" y="26" width="2" height="2" fill="#9EBBCF" />
<rect x="15" y="26" width="1" height="1" fill="#B8D4E6" />
<rect x="19" y="26" width="1" height="5" fill="#9EBBCF" />
<rect x="21" y="26" width="1" height="1" fill="#9EBBCF" />
<rect x="22" y="26" width="1" height="2" fill="#9DBBD1" />
<rect x="23" y="26" width="4" height="1" fill="#9EBBCF" />
<rect x="15" y="27" width="1" height="4" fill="#9DBBD1" />
<rect x="20" y="27" width="1" height="3" fill="#9EBBCF" />
<rect x="21" y="27" width="1" height="1" fill="#9DBBD1" />
<rect x="23" y="27" width="1" height="1" fill="#9DBBD1" />
<rect x="24" y="27" width="3" height="4" fill="#9EBBCF" />
<rect x="32" y="27" width="6" height="1" fill="#9EBBCF" />
<rect x="38" y="27" width="1" height="1" fill="#9FBCD1" />
<rect x="46" y="27" width="1" height="1" fill="#435763" />
<rect x="60" y="27" width="1" height="5" fill="#778B98" opacity="0.890196" />
<rect x="13" y="28" width="1" height="2" fill="#9EBBCF" />
<rect x="14" y="28" width="1" height="7" fill="#9DBBD1" />
<rect x="21" y="28" width="3" height="25" fill="#9EBBCF" />
<rect x="32" y="28" width="2" height="1" fill="#9EBBCF" />
<rect x="34" y="28" width="4" height="2" fill="#2B516E" />
<rect x="38" y="28" width="1" height="2" fill="#9EBBCF" />
<rect x="44" y="28" width="1" height="2" fill="#9EBBCF" />
<rect x="45" y="28" width="1" height="2" fill="#6B808D" />
<rect x="46" y="28" width="1" height="1" fill="#3F5754" />
<rect x="47" y="28" width="1" height="1" fill="#6B808D" />
<rect x="48" y="28" width="2" height="1" fill="#9EBBCF" />
<rect x="50" y="28" width="2" height="1" fill="#6B808D" />
<rect x="52" y="28" width="5" height="1" fill="#9EBBCF" />
<rect x="16" y="29" width="1" height="4" fill="#B8D4E6" />
<rect x="17" y="29" width="2" height="4" fill="#9EBBCF" />
<rect x="28" y="29" width="1" height="1" fill="#9EBBCF" />
<rect x="29" y="29" width="3" height="1" fill="#829DB0" />
<rect x="32" y="29" width="1" height="1" fill="#9DBBD1" />
<rect x="33" y="29" width="1" height="2" fill="#829DB0" />
<rect x="39" y="29" width="1" height="1" fill="#9DBBD1" />
<rect x="40" y="29" width="2" height="1" fill="#829DB0" />
<rect x="42" y="29" width="1" height="1" fill="#9DBBD1" />
<rect x="43" y="29" width="1" height="1" fill="#9EBBCF" />
<rect x="46" y="29" width="1" height="1" fill="#455C5E" />
<rect x="47" y="29" width="1" height="1" fill="#456436" />
<rect x="48" y="29" width="1" height="1" fill="#6B808D" />
<rect x="49" y="29" width="1" height="1" fill="#495E6B" />
<rect x="50" y="29" width="2" height="1" fill="#455C5E" />
<rect x="52" y="29" width="1" height="1" fill="#495E6B" />
<rect x="53" y="29" width="4" height="1" fill="#9EBBCF" />
<rect x="13" y="30" width="1" height="7" fill="#9DBBD1" />
<rect x="20" y="30" width="1" height="4" fill="#9DBBD1" />
<rect x="27" y="30" width="1" height="1" fill="#9DBBD1" />
<rect x="28" y="30" width="1" height="1" fill="#829DB0" />
<rect x="29" y="30" width="1" height="1" fill="#6688A4" />
<rect x="30" y="30" width="2" height="2" fill="#2B516E" />
<rect x="32" y="30" width="1" height="1" fill="#829DB0" />
<rect x="34" y="30" width="1" height="3" fill="#446782" />
<rect x="35" y="30" width="2" height="5" fill="#6688A4" />
<rect x="37" y="30" width="1" height="2" fill="#446782" />
<rect x="38" y="30" width="2" height="1" fill="#829DB0" />
<rect x="40" y="30" width="1" height="2" fill="#2B516E" />
<rect x="41" y="30" width="1" height="1" fill="#446782" />
<rect x="42" y="30" width="1" height="1" fill="#829DB0" />
<rect x="43" y="30" width="2" height="1" fill="#9DBBD1" />
<rect x="45" y="30" width="1" height="1" fill="#9EBBCF" />
<rect x="46" y="30" width="1" height="1" fill="#3E5552" />
<rect x="47" y="30" width="1" height="1" fill="#5C7A5E" />
<rect x="48" y="30" width="1" height="2" fill="#455C5E" />
<rect x="49" y="30" width="1" height="1" fill="#456436" />
<rect x="50" y="30" width="3" height="1" fill="#5C7A5E" />
<rect x="53" y="30" width="1" height="1" fill="#415759" />
<rect x="54" y="30" width="3" height="1" fill="#9EBBCF" />
<rect x="15" y="31" width="1" height="2" fill="#B8D4E6" />
<rect x="19" y="31" width="1" height="1" fill="#9DBBD1" />
<rect x="24" y="31" width="2" height="4" fill="#9EBBCF" />
<rect x="26" y="31" width="1" height="2" fill="#9DBBD1" />
<rect x="27" y="31" width="1" height="1" fill="#829DB0" />
<rect x="28" y="31" width="2" height="2" fill="#2B516E" />
<rect x="32" y="31" width="2" height="2" fill="#446782" />
<rect x="38" y="31" width="1" height="2" fill="#446782" />
<rect x="39" y="31" width="1" height="1" fill="#2B516E" />
<rect x="41" y="31" width="2" height="1" fill="#2B516E" />
<rect x="43" y="31" width="1" height="1" fill="#6688A4" />
<rect x="44" y="31" width="2" height="2" fill="#9DBBD1" />
<rect x="46" y="31" width="1" height="1" fill="#6B808D" />
<rect x="47" y="31" width="1" height="1" fill="#455C5E" />
<rect x="49" y="31" width="2" height="1" fill="#5C7A5E" />
<rect x="51" y="31" width="2" height="1" fill="#9EBBCF" />
<rect x="53" y="31" width="1" height="1" fill="#5C7A5E" />
<rect x="54" y="31" width="1" height="1" fill="#415759" />
<rect x="55" y="31" width="2" height="1" fill="#9EBBCF" />
<rect x="19" y="32" width="1" height="2" fill="#9EBBCF" />
<rect x="27" y="32" width="1" height="2" fill="#9DBBD1" />
<rect x="30" y="32" width="2" height="2" fill="#6688A4" />
<rect x="37" y="32" width="1" height="4" fill="#6688A4" />
<rect x="39" y="32" width="1" height="1" fill="#446782" />
<rect x="40" y="32" width="2" height="2" fill="#6688A4" />
<rect x="42" y="32" width="1" height="3" fill="#446782" />
<rect x="43" y="32" width="1" height="1" fill="#2B516E" />
<rect x="46" y="32" width="1" height="7" fill="#9EBBCF" />
<rect x="47" y="32" width="1" height="1" fill="#415759" />
<rect x="48" y="32" width="2" height="9" fill="#9EBBCF" />
<rect x="50" y="32" width="2" height="1" fill="#5C7A5E" />
<rect x="52" y="32" width="2" height="11" fill="#9EBBCF" />
<rect x="54" y="32" width="1" height="1" fill="#5C7A5E" />
<rect x="55" y="32" width="2" height="1" fill="#495E6B" />
<rect x="60" y="32" width="1" height="1" fill="#778B98" opacity="0.666667" />
<rect x="15" y="33" width="2" height="1" fill="#C6E0F1" />
<rect x="17" y="33" width="1" height="4" fill="#B8D4E6" />
<rect x="18" y="33" width="1" height="3" fill="#9EBBCF" />
<rect x="26" y="33" width="1" height="3" fill="#9EBBCF" />
<rect x="28" y="33" width="1" height="1" fill="#446782" />
<rect x="29" y="33" width="1" height="2" fill="#2B516E" />
<rect x="32" y="33" width="3" height="3" fill="#6688A4" />
<rect x="38" y="33" width="2" height="3" fill="#6688A4" />
<rect x="43" y="33" width="1" height="1" fill="#6688A4" />
<rect x="44" y="33" width="1" height="1" fill="#9DBBD1" />
<rect x="45" y="33" width="1" height="3" fill="#9EBBCF" />
<rect x="47" y="33" width="1" height="3" fill="#495E6B" />
<rect x="50" y="33" width="1" height="1" fill="#5C7A5E" />
<rect x="51" y="33" width="1" height="6" fill="#9EBBCF" />
<rect x="54" y="33" width="3" height="13" fill="#9EBBCF" />
<rect x="57" y="33" width="1" height="1" fill="#445864" />
<rect x="58" y="33" width="1" height="1" fill="#788B98" />
<rect x="60" y="33" width="1" height="6" fill="#54636C" opacity="0.890196" />
<rect x="15" y="34" width="1" height="2" fill="#C6E0F1" />
<rect x="16" y="34" width="1" height="3" fill="#CDE7F7" />
<rect x="19" y="34" width="1" height="1" fill="#9DBBD1" />
<rect x="20" y="34" width="1" height="19" fill="#9EBBCF" />
<rect x="27" y="34" width="1" height="1" fill="#9EBBCF" />
<rect x="28" y="34" width="1" height="2" fill="#829DB0" />
<rect x="30" y="34" width="1" height="3" fill="#446782" />
<rect x="31" y="34" width="1" height="12" fill="#6688A4" />
<rect x="40" y="34" width="1" height="12" fill="#6688A4" />
<rect x="41" y="34" width="1" height="2" fill="#446782" />
<rect x="43" y="34" width="1" height="1" fill="#9EBBCF" />
<rect x="44" y="34" width="1" height="3" fill="#829DB0" />
<rect x="50" y="34" width="1" height="6" fill="#9EBBCF" />
<rect x="57" y="34" width="1" height="1" fill="#788B98" />
<rect x="58" y="34" width="1" height="1" fill="#4C616E" />
<rect x="14" y="35" width="1" height="4" fill="#9EBBCF" />
<rect x="19" y="35" width="1" height="2" fill="#455A67" />
<rect x="24" y="35" width="1" height="9" fill="#9EBBCF" />
<rect x="25" y="35" width="1" height="1" fill="#9EBCD1" />
<rect x="27" y="35" width="1" height="1" fill="#829DB0" />
<rect x="29" y="35" width="1" height="2" fill="#446782" />
<rect x="35" y="35" width="2" height="6" fill="#9EBBCF" />
<rect x="42" y="35" width="1" height="1" fill="#6688A4" />
<rect x="43" y="35" width="1" height="1" fill="#829DB0" />
<rect x="57" y="35" width="1" height="13" fill="#B8D4E6" />
<rect x="58" y="35" width="1" height="4" fill="#445864" />
<rect x="15" y="36" width="1" height="1" fill="#CDE7F7" />
<rect x="18" y="36" width="1" height="1" fill="#455A67" />
<rect x="25" y="36" width="1" height="1" fill="#9FBCD1" />
<rect x="26" y="36" width="1" height="3" fill="#829DB0" />
<rect x="27" y="36" width="1" height="1" fill="#446782" />
<rect x="28" y="36" width="1" height="3" fill="#2B516E" />
<rect x="32" y="36" width="2" height="1" fill="#6688A4" />
<rect x="34" y="36" width="1" height="4" fill="#9EBBCF" />
<rect x="37" y="36" width="1" height="1" fill="#9EBBCF" />
<rect x="38" y="36" width="1" height="1" fill="#547351" />
<rect x="39" y="36" width="1" height="2" fill="#6688A4" />
<rect x="41" y="36" width="1" height="10" fill="#6688A4" />
<rect x="42" y="36" width="1" height="1" fill="#446782" />
<rect x="43" y="36" width="1" height="1" fill="#2B516E" />
<rect x="45" y="36" width="1" height="4" fill="#829DB0" />
<rect x="47" y="36" width="1" height="17" fill="#9EBBCF" />
<rect x="11" y="37" width="1" height="3" fill="#778B98" opacity="0.890196" />
<rect x="13" y="37" width="1" height="3" fill="#9EBBCF" />
<rect x="15" y="37" width="2" height="1" fill="#B8D4E6" />
<rect x="17" y="37" width="1" height="1" fill="#9EBBCF" />
<rect x="18" y="37" width="1" height="1" fill="#415562" />
<rect x="19" y="37" width="1" height="1" fill="#9DBBD1" />
<rect x="25" y="37" width="1" height="2" fill="#9EBBCF" />
<rect x="27" y="37" width="1" height="1" fill="#2B516E" />
<rect x="29" y="37" width="2" height="2" fill="#6688A4" />
<rect x="32" y="37" width="1" height="8" fill="#6688A4" />
<rect x="33" y="37" width="1" height="2" fill="#9EBBCF" />
<rect x="37" y="37" width="1" height="2" fill="#62805C" />
<rect x="38" y="37" width="1" height="1" fill="#385720" />
<rect x="42" y="37" width="1" height="9" fill="#6688A4" />
<rect x="43" y="37" width="1" height="1" fill="#446782" />
<rect x="44" y="37" width="1" height="1" fill="#2B516E" />
<rect x="15" y="38" width="1" height="1" fill="#9EBBCF" />
<rect x="16" y="38" width="1" height="1" fill="#6B808D" />
<rect x="17" y="38" width="1" height="1" fill="#455A67" />
<rect x="18" y="38" width="1" height="9" fill="#9DBBD1" />
<rect x="19" y="38" width="1" height="6" fill="#9EBBCF" />
<rect x="27" y="38" width="1" height="1" fill="#446782" />
<rect x="38" y="38" width="1" height="1" fill="#53713F" />
<rect x="39" y="38" width="1" height="1" fill="#3D5E3D" />
<rect x="43" y="38" width="1" height="2" fill="#6688A4" />
<rect x="44" y="38" width="1" height="1" fill="#446782" />
<rect x="14" y="39" width="1" height="1" fill="#6B808D" />
<rect x="15" y="39" width="1" height="1" fill="#455A67" />
<rect x="16" y="39" width="1" height="1" fill="#3E5360" />
<rect x="17" y="39" width="1" height="12" fill="#9EBBCF" />
<rect x="25" y="39" width="2" height="3" fill="#9DBBD1" />
<rect x="27" y="39" width="1" height="1" fill="#829DB0" />
<rect x="28" y="39" width="2" height="1" fill="#446782" />
<rect x="30" y="39" width="1" height="1" fill="#6688A4" />
<rect x="33" y="39" width="1" height="2" fill="#446782" />
<rect x="37" y="39" width="1" height="1" fill="#9EBBCF" />
<rect x="38" y="39" width="1" height="1" fill="#456544" />
<rect x="39" y="39" width="1" height="6" fill="#6688A4" />
<rect x="44" y="39" width="1" height="1" fill="#6688A4" />
<rect x="46" y="39" width="1" height="3" fill="#9DBBD1" />
<rect x="51" y="39" width="1" height="5" fill="#9DBBD1" />
<rect x="58" y="39" width="1" height="2" fill="#4C616E" />
<rect x="60" y="39" width="1" height="19" fill="#778B98" opacity="0.666667" />
<rect x="11" y="40" width="1" height="2" fill="#54636C" opacity="0.890196" />
<rect x="13" y="40" width="1" height="1" fill="#53636D" />
<rect x="14" y="40" width="1" height="1" fill="#4D6372" />
<rect x="15" y="40" width="1" height="4" fill="#9EBBCF" />
<rect x="16" y="40" width="1" height="4" fill="#455A67" />
<rect x="27" y="40" width="2" height="1" fill="#9EBBCF" />
<rect x="29" y="40" width="2" height="2" fill="#446782" />
<rect x="34" y="40" width="1" height="2" fill="#446782" />
<rect x="37" y="40" width="2" height="1" fill="#2B516E" />
<rect x="43" y="40" width="2" height="1" fill="#829DB0" />
<rect x="45" y="40" width="1" height="2" fill="#9DBBD1" />
<rect x="50" y="40" width="1" height="5" fill="#9DBBD1" />
<rect x="13" y="41" width="1" height="1" fill="#415562" />
<rect x="14" y="41" width="1" height="3" fill="#9EBBCF" />
<rect x="27" y="41" width="1" height="1" fill="#9EBBCF" />
<rect x="28" y="41" width="1" height="1" fill="#829DB0" />
<rect x="33" y="41" width="1" height="5" fill="#6688A4" />
<rect x="35" y="41" width="1" height="1" fill="#446782" />
<rect x="36" y="41" width="2" height="1" fill="#2B516E" />
<rect x="38" y="41" width="1" height="5" fill="#6688A4" />
<rect x="43" y="41" width="1" height="1" fill="#829DB0" />
<rect x="44" y="41" width="1" height="1" fill="#9EBBCF" />
<rect x="48" y="41" width="1" height="12" fill="#9EBBCF" />
<rect x="49" y="41" width="1" height="2" fill="#9DBBD1" />
<rect x="58" y="41" width="1" height="2" fill="#788B98" />
<rect x="59" y="41" width="1" height="3" fill="#374B5A" />
<rect x="11" y="42" width="1" height="3" fill="#566670" opacity="0.964706" />
<rect x="12" y="42" width="1" height="1" fill="#31404E" />
<rect x="13" y="42" width="1" height="2" fill="#3F535E" />
<rect x="25" y="42" width="1" height="2" fill="#9DBBD1" />
<rect x="26" y="42" width="1" height="1" fill="#9EBBCF" />
<rect x="27" y="42" width="1" height="2" fill="#829DB0" />
<rect x="28" y="42" width="1" height="2" fill="#2B516E" />
<rect x="29" y="42" width="1" height="1" fill="#446782" />
<rect x="30" y="42" width="1" height="4" fill="#6688A4" />
<rect x="34" y="42" width="4" height="5" fill="#6688A4" />
<rect x="43" y="42" width="1" height="3" fill="#6688A4" />
<rect x="44" y="42" width="1" height="3" fill="#9DBBD1" />
<rect x="45" y="42" width="2" height="1" fill="#9EBBCF" />
<rect x="12" y="43" width="1" height="1" fill="#26394D" />
<rect x="26" y="43" width="1" height="2" fill="#9DBBD1" />
<rect x="29" y="43" width="1" height="2" fill="#6688A4" />
<rect x="45" y="43" width="1" height="2" fill="#9DBBD1" />
<rect x="46" y="43" width="1" height="5" fill="#9EBBCF" />
<rect x="49" y="43" width="1" height="10" fill="#9EBBCF" />
<rect x="52" y="43" width="1" height="8" fill="#9DBBD1" />
<rect x="53" y="43" width="1" height="1" fill="#9EBBCF" />
<rect x="58" y="43" width="1" height="5" fill="#B8D4E6" />
<rect x="12" y="44" width="1" height="1" fill="#36444E" />
<rect x="13" y="44" width="1" height="2" fill="#6B808D" />
<rect x="14" y="44" width="1" height="4" fill="#577657" />
<rect x="15" y="44" width="1" height="1" fill="#455A67" />
<rect x="16" y="44" width="1" height="4" fill="#9EBBCF" />
<rect x="19" y="44" width="1" height="2" fill="#9DBBD1" />
<rect x="24" y="44" width="1" height="2" fill="#9DBBD1" />
<rect x="25" y="44" width="1" height="9" fill="#9EBBCF" />
<rect x="27" y="44" width="1" height="1" fill="#9DBBD1" />
<rect x="28" y="44" width="1" height="1" fill="#829DB0" />
<rect x="51" y="44" width="1" height="9" fill="#9EBBCF" />
<rect x="53" y="44" width="1" height="8" fill="#9DBBD1" />
<rect x="59" y="44" width="1" height="14" fill="#26394D" />
<rect x="11" y="45" width="1" height="5" fill="#54636C" opacity="0.890196" />
<rect x="12" y="45" width="1" height="2" fill="#31404E" />
<rect x="15" y="45" width="1" height="2" fill="#9EBBCF" />
<rect x="26" y="45" width="3" height="8" fill="#9EBBCF" />
<rect x="29" y="45" width="1" height="2" fill="#829DB0" />
<rect x="32" y="45" width="1" height="1" fill="#829DB0" />
<rect x="39" y="45" width="1" height="1" fill="#829DB0" />
<rect x="43" y="45" width="3" height="5" fill="#9EBBCF" />
<rect x="50" y="45" width="1" height="8" fill="#9EBBCF" />
<rect x="13" y="46" width="1" height="1" fill="#3F535E" />
<rect x="19" y="46" width="1" height="7" fill="#9EBBCF" />
<rect x="24" y="46" width="1" height="7" fill="#9EBBCF" />
<rect x="30" y="46" width="2" height="1" fill="#829DB0" />
<rect x="32" y="46" width="1" height="7" fill="#9EBBCF" />
<rect x="33" y="46" width="1" height="1" fill="#829DB0" />
<rect x="38" y="46" width="1" height="1" fill="#829DB0" />
<rect x="39" y="46" width="1" height="7" fill="#9EBBCF" />
<rect x="40" y="46" width="2" height="2" fill="#9DBBD1" />
<rect x="42" y="46" width="1" height="1" fill="#9EBBCF" />
<rect x="54" y="46" width="1" height="2" fill="#9EBBCF" />
<rect x="55" y="46" width="2" height="3" fill="#9DBBD1" />
<rect x="12" y="47" width="1" height="1" fill="#36444E" />
<rect x="13" y="47" width="1" height="2" fill="#577657" />
<rect x="15" y="47" width="1" height="3" fill="#577657" />
<rect x="18" y="47" width="1" height="6" fill="#9EBBCF" />
<rect x="29" y="47" width="3" height="1" fill="#9DBBD1" />
<rect x="33" y="47" width="1" height="6" fill="#9EBBCF" />
<rect x="34" y="47" width="3" height="1" fill="#6688A4" />
<rect x="37" y="47" width="1" height="1" fill="#829DB0" />
<rect x="38" y="47" width="1" height="6" fill="#9EBBCF" />
<rect x="42" y="47" width="1" height="1" fill="#9DBBD1" />
<rect x="12" y="48" width="1" height="1" fill="#26394D" />
<rect x="14" y="48" width="1" height="1" fill="#9EBBCF" />
<rect x="16" y="48" width="1" height="1" fill="#577657" />
<rect x="29" y="48" width="3" height="5" fill="#9EBBCF" />
<rect x="34" y="48" width="4" height="2" fill="#9DBBD1" />
<rect x="40" y="48" width="3" height="5" fill="#9EBBCF" />
<rect x="46" y="48" width="1" height="2" fill="#495E6B" />
<rect x="54" y="48" width="1" height="4" fill="#9DBBD1" />
<rect x="57" y="48" width="2" height="2" fill="#C6E0F1" />
<rect x="12" y="49" width="1" height="2" fill="#31404E" />
<rect x="13" y="49" width="1" height="1" fill="#425663" />
<rect x="14" y="49" width="1" height="2" fill="#B8D4E6" />
<rect x="16" y="49" width="1" height="1" fill="#9EBBCF" />
<rect x="55" y="49" width="1" height="4" fill="#9DBBD1" />
<rect x="56" y="49" width="1" height="2" fill="#9EBBCF" />
<rect x="11" y="50" width="1" height="6" fill="#778B98" opacity="0.666667" />
<rect x="13" y="50" width="1" height="1" fill="#475C69" />
<rect x="15" y="50" width="1" height="2" fill="#385720" />
<rect x="16" y="50" width="1" height="1" fill="#577657" />
<rect x="34" y="50" width="4" height="3" fill="#9EBBCF" />
<rect x="43" y="50" width="2" height="2" fill="#9EBBCF" />
<rect x="45" y="50" width="1" height="2" fill="#495E6B" />
<rect x="46" y="50" width="1" height="3" fill="#9EBBCF" />
<rect x="57" y="50" width="1" height="1" fill="#C6E0F1" />
<rect x="58" y="50" width="1" height="1" fill="#AFCBDD" />
<rect x="12" y="51" width="1" height="7" fill="#26394D" />
<rect x="13" y="51" width="1" height="1" fill="#788B98" />
<rect x="14" y="51" width="1" height="1" fill="#9CBAD0" />
<rect x="16" y="51" width="1" height="1" fill="#385720" />
<rect x="17" y="51" width="1" height="2" fill="#577657" />
<rect x="52" y="51" width="1" height="2" fill="#9EBBCF" />
<rect x="56" y="51" width="1" height="3" fill="#B8D4E6" />
<rect x="57" y="51" width="1" height="2" fill="#AFCBDD" />
<rect x="58" y="51" width="1" height="2" fill="#8BA9BE" />
<rect x="13" y="52" width="1" height="1" fill="#7F919D" />
<rect x="14" y="52" width="1" height="5" fill="#6688A4" />
<rect x="15" y="52" width="1" height="1" fill="#9CBAD0" />
<rect x="16" y="52" width="1" height="1" fill="#577657" />
<rect x="43" y="52" width="1" height="1" fill="#9EBBCF" />
<rect x="44" y="52" width="1" height="1" fill="#495E6B" />
<rect x="45" y="52" width="1" height="1" fill="#9EBBCF" />
<rect x="53" y="52" width="2" height="1" fill="#9EBBCF" />
<rect x="13" y="53" width="1" height="4" fill="#9CBAD0" />
<rect x="15" y="53" width="2" height="6" fill="#6688A4" />
<rect x="17" y="53" width="1" height="1" fill="#B8D4E6" />
<rect x="18" y="53" width="1" height="1" fill="#C6E0F1" />
<rect x="19" y="53" width="24" height="1" fill="#B8D4E6" />
<rect x="43" y="53" width="1" height="1" fill="#788B98" />
<rect x="44" y="53" width="1" height="1" fill="#5C7381" />
<rect x="45" y="53" width="11" height="1" fill="#B8D4E6" />
<rect x="57" y="53" width="2" height="4" fill="#2B516E" />
<rect x="17" y="54" width="1" height="1" fill="#9CBAD0" />
<rect x="18" y="54" width="1" height="1" fill="#B8D3E6" />
<rect x="19" y="54" width="14" height="1" fill="#9CBAD0" />
<rect x="33" y="54" width="5" height="1" fill="#8BA9BE" />
<rect x="38" y="54" width="2" height="1" fill="#9CBAD0" />
<rect x="40" y="54" width="4" height="1" fill="#8BA9BE" />
<rect x="44" y="54" width="1" height="1" fill="#425662" />
<rect x="45" y="54" width="10" height="1" fill="#8BA9BE" />
<rect x="55" y="54" width="1" height="1" fill="#B8D4E6" />
<rect x="56" y="54" width="1" height="5" fill="#2B516E" />
<rect x="17" y="55" width="16" height="4" fill="#6688A4" />
<rect x="33" y="55" width="5" height="1" fill="#446782" />
<rect x="38" y="55" width="2" height="4" fill="#6688A4" />
<rect x="40" y="55" width="3" height="2" fill="#446782" />
<rect x="43" y="55" width="1" height="1" fill="#3E505B" />
<rect x="44" y="55" width="1" height="1" fill="#3E5360" />
<rect x="45" y="55" width="8" height="1" fill="#446782" />
<rect x="53" y="55" width="3" height="4" fill="#2B516E" />
<rect x="11" y="56" width="1" height="1" fill="#778B98" opacity="0.890196" />
<rect x="33" y="56" width="2" height="3" fill="#446782" />
<rect x="35" y="56" width="3" height="3" fill="#2B516E" />
<rect x="43" y="56" width="1" height="1" fill="#3E5361" />
<rect x="44" y="56" width="1" height="3" fill="#446782" />
<rect x="45" y="56" width="1" height="1" fill="#3E5462" />
<rect x="46" y="56" width="7" height="1" fill="#446782" />
<rect x="13" y="57" width="2" height="1" fill="#26394D" />
<rect x="40" y="57" width="2" height="1" fill="#446782" />
<rect x="42" y="57" width="1" height="1" fill="#3E5361" />
<rect x="43" y="57" width="1" height="2" fill="#446782" />
<rect x="45" y="57" width="1" height="1" fill="#3E515E" />
<rect x="46" y="57" width="1" height="1" fill="#3E5462" />
<rect x="47" y="57" width="6" height="2" fill="#446782" />
<rect x="57" y="57" width="2" height="1" fill="#26394D" />
<rect x="13" y="58" width="1" height="1" fill="#859AA7" opacity="0.890196" />
<rect x="14" y="58" width="1" height="2" fill="#26394D" />
<rect x="40" y="58" width="1" height="1" fill="#446782" />
<rect x="41" y="58" width="1" height="1" fill="#3E5361" />
<rect x="42" y="58" width="1" height="1" fill="#446782" />
<rect x="45" y="58" width="1" height="1" fill="#3E5462" />
<rect x="46" y="58" width="1" height="1" fill="#3E505B" />
<rect x="57" y="58" width="1" height="2" fill="#26394D" />
<rect x="58" y="58" width="1" height="1" fill="#54636C" opacity="0.890196" />
<rect x="59" y="58" width="1" height="1" fill="#778B98" opacity="0.666667" />
<rect x="15" y="59" width="24" height="1" fill="#26394D" />
<rect x="39" y="59" width="2" height="1" fill="#31404E" />
<rect x="41" y="59" width="3" height="1" fill="#26394D" />
<rect x="44" y="59" width="1" height="1" fill="#31404E" />
<rect x="45" y="59" width="1" height="1" fill="#26394D" />
<rect x="46" y="59" width="1" height="1" fill="#31404E" />
<rect x="47" y="59" width="1" height="1" fill="#36444E" />
<rect x="48" y="59" width="9" height="1" fill="#26394D" />
<rect x="58" y="59" width="1" height="1" fill="#778B98" opacity="0.666667" />
<rect x="15" y="60" width="15" height="1" fill="#778B98" opacity="0.666667" />
<rect x="30" y="60" width="5" height="1" fill="#778B98" opacity="0.890196" />
<rect x="35" y="60" width="1" height="1" fill="#778B98" opacity="0.964706" />
<rect x="36" y="60" width="3" height="1" fill="#778B98" opacity="0.890196" />
<rect x="39" y="60" width="5" height="1" fill="#566670" opacity="0.964706" />
<rect x="44" y="60" width="2" height="1" fill="#54636C" opacity="0.890196" />
<rect x="46" y="60" width="2" height="1" fill="#566670" opacity="0.964706" />
<rect x="48" y="60" width="1" height="1" fill="#49575F" opacity="0.984314" />
<rect x="49" y="60" width="1" height="1" fill="#576770" opacity="0.949020" />
<rect x="50" y="60" width="2" height="1" fill="#778B98" opacity="0.890196" />
<rect x="52" y="60" width="5" height="1" fill="#778B98" opacity="0.666667" />
<rect x="57" y="60" width="1" height="1" fill="#778B98" opacity="0.890196" />
</svg>