<?xml version="1.0" encoding="UTF-8" ?>
<svg version="1.1" width="72" height="72" xmlns="http://www.w3.org/2000/svg" shape-rendering="crispEdges">
<rect x="15" y="19" width="2" height="1" fill="#778B98" opacity="0.666667" />
<rect x="17" y="19" width="1" height="1" fill="#54636C" opacity="0.890196" />
<rect x="18" y="19" width="1" height="1" fill="#778B98" opacity="0.666667" />
<rect x="19" y="19" width="1" height="1" fill="#778B98" opacity="0.890196" />
<rect x="20" y="19" width="7" height="1" fill="#778B98" opacity="0.666667" />
<rect x="27" y="19" width="4" height="1" fill="#54636C" opacity="0.890196" />
<rect x="31" y="19" width="1" height="1" fill="#566670" opacity="0.964706" />
<rect x="32" y="19" width="1" height="1" fill="#778B98" opacity="0.666667" />
<rect x="33" y="19" width="3" height="1" fill="#778B98" opacity="0.890196" />
<rect x="36" y="19" width="1" height="1" fill="#566670" opacity="0.964706" />
<rect x="37" y="19" width="3" height="1" fill="#54636C" opacity="0.890196" />
<rect x="40" y="19" width="1" height="1" fill="#49575F" opacity="0.988235" />
<rect x="41" y="19" width="3" height="1" fill="#54636C" opacity="0.890196" />
<rect x="44" y="19" width="12" height="1" fill="#778B98" opacity="0.666667" />
<rect x="14" y="20" width="1" height="1" fill="#778B98" opacity="0.666667" />
<rect x="15" y="20" width="42" height="1" fill="#26394D" />
<rect x="57" y="20" width="1" height="1" fill="#778B98" opacity="0.666667" />
<rect x="13" y="21" width="1" height="1" fill="#778B98" opacity="0.666667" />
<rect x="14" y="21" width="1" height="2" fill="#829DB0" />
<rect x="15" y="21" width="1" height="1" fill="#9EBBCF" />
<rect x="16" y="21" width="1" height="1" fill="#829DB0" />
<rect x="17" y="21" width="2" height="1" fill="#668462" />
<rect x="19" y="21" width="35" height="1" fill="#9EBBCF" />
<rect x="54" y="21" width="3" height="2" fill="#B8D4E6" />
<rect x="57" y="21" width="1" height="1" fill="#26394D" />
<rect x="58" y="21" width="1" height="1" fill="#778B98" opacity="0.666667" />
<rect x="12" y="22" width="1" height="1" fill="#778B98" opacity="0.666667" />
<rect x="13" y="22" width="1" height="1" fill="#26394D" />
<rect x="15" y="22" width="1" height="1" fill="#829DB0" />
<rect x="16" y="22" width="2" height="1" fill="#9EBBCF" />
<rect x="18" y="22" width="3" height="1" fill="#668462" />
<rect x="21" y="22" width="33" height="1" fill="#9EBBCF" />
<rect x="57" y="22" width="1" height="1" fill="#B8D4E6" />
<rect x="58" y="22" width="1" height="1" fill="#26394D" />
<rect x="12" y="23" width="1" height="35" fill="#26394D" />
<rect x="13" y="23" width="1" height="2" fill="#9EBBCF" />
<rect x="14" y="23" width="1" height="2" fill="#668462" />
<rect x="15" y="23" width="1" height="1" fill="#9EBBCF" />
<rect x="16" y="23" width="2" height="1" fill="#668462" />
<rect x="18" y="23" width="1" height="1" fill="#829DB0" />
<rect x="19" y="23" width="1" height="1" fill="#9EBBCF" />
<rect x="20" y="23" width="4" height="1" fill="#829DB0" />
<rect x="24" y="23" width="32" height="1" fill="#9EBBCF" />
<rect x="56" y="23" width="1" height="1" fill="#B8D4E6" />
<rect x="57" y="23" width="2" height="2" fill="#CDE7F7" />
<rect x="59" y="23" width="1" height="11" fill="#26394D" />
<rect x="11" y="24" width="1" height="13" fill="#778B98" opacity="0.666667" />
<rect x="15" y="24" width="1" height="1" fill="#5B794C" />
<rect x="16" y="24" width="1" height="1" fill="#587648" />
<rect x="17" y="24" width="1" height="3" fill="#829DB0" />
<rect x="18" y="24" width="1" height="1" fill="#9EBBCF" />
<rect x="19" y="24" width="1" height="1" fill="#829DB0" />
<rect x="20" y="24" width="4" height="1" fill="#9EBBCF" />
<rect x="24" y="24" width="1" height="1" fill="#829DB0" />
<rect x="25" y="24" width="32" height="3" fill="#9EBBCF" />
<rect x="60" y="24" width="1" height="3" fill="#778B98" opacity="0.666667" />
<rect x="13" y="25" width="1" height="3" fill="#668462" />
<rect x="14" y="25" width="1" height="24" fill="#9EBBCF" />
<rect x="15" y="25" width="1" height="4" fill="#CDE7F7" />
<rect x="16" y="25" width="1" height="1" fill="#5D7A4E" />
<rect x="18" y="25" width="1" height="1" fill="#668462" />
<rect x="19" y="25" width="1" height="3" fill="#5B794C" />
<rect x="20" y="25" width="1" height="3" fill="#668462" />
<rect x="21" y="25" width="4" height="6" fill="#9EBBCF" />
<rect x="57" y="25" width="2" height="8" fill="#B8D4E6" />
<rect x="16" y="26" width="1" height="1" fill="#CDE7F7" />
<rect x="18" y="26" width="1" height="1" fill="#5B794C" />
<rect x="16" y="27" width="1" height="2" fill="#829DB0" />
<rect x="17" y="27" width="1" height="4" fill="#9EBBCF" />
<rect x="18" y="27" width="1" height="1" fill="#668462" />
<rect x="25" y="27" width="8" height="1" fill="#9EBBCF" />
<rect x="33" y="27" width="1" height="1" fill="#9FBCD1" />
<rect x="34" y="27" width="23" height="2" fill="#9EBBCF" />
<rect x="60" y="27" width="1" height="5" fill="#778B98" opacity="0.890196" />
<rect x="13" y="28" width="1" height="21" fill="#9EBBCF" />
<rect x="18" y="28" width="3" height="2" fill="#9EBBCF" />
<rect x="25" y="28" width="2" height="1" fill="#9EBBCF" />
<rect x="27" y="28" width="4" height="1" fill="#829DB0" />
<rect x="31" y="28" width="1" height="1" fill="#9EBBCF" />
<rect x="32" y="28" width="1" height="1" fill="#9FBCD1" />
<rect x="33" y="28" width="1" height="7" fill="#9EBBCF" />
<rect x="15" y="29" width="2" height="1" fill="#9EBBCF" />
<rect x="25" y="29" width="1" height="1" fill="#9EBBCF" />
<rect x="26" y="29" width="1" height="2" fill="#446782" />
<rect x="27" y="29" width="4" height="2" fill="#2B516E" />
<rect x="31" y="29" width="1" height="1" fill="#829DB0" />
<rect x="32" y="29" width="1" height="1" fill="#9EBBCF" />
<rect x="34" y="29" width="7" height="1" fill="#9EBBCF" />
<rect x="41" y="29" width="1" height="8" fill="#446782" />
<rect x="42" y="29" width="5" height="2" fill="#2B516E" />
<rect x="47" y="29" width="3" height="1" fill="#9EBBCF" />
<rect x="50" y="29" width="1" height="1" fill="#6A7F8D" />
<rect x="51" y="29" width="6" height="1" fill="#9EBBCF" />
<rect x="15" y="30" width="1" height="1" fill="#9EBBCF" />
<rect x="16" y="30" width="1" height="1" fill="#829DB0" />
<rect x="18" y="30" width="2" height="1" fill="#9EBBCF" />
<rect x="20" y="30" width="1" height="4" fill="#9DBBD1" />
<rect x="25" y="30" width="1" height="1" fill="#829DB0" />
<rect x="31" y="30" width="1" height="1" fill="#2B516E" />
<rect x="32" y="30" width="1" height="6" fill="#829DB0" />
<rect x="34" y="30" width="6" height="5" fill="#9EBBCF" />
<rect x="40" y="30" width="1" height="2" fill="#89A4B7" />
<rect x="47" y="30" width="1" height="8" fill="#2B516E" />
<rect x="48" y="30" width="3" height="4" fill="#9EBBCF" />
<rect x="51" y="30" width="1" height="2" fill="#6A7F8D" />
<rect x="52" y="30" width="5" height="1" fill="#9EBBCF" />
<rect x="15" y="31" width="1" height="4" fill="#829DB0" />
<rect x="16" y="31" width="1" height="6" fill="#CDE7F7" />
<rect x="17" y="31" width="1" height="2" fill="#829DB0" />
<rect x="18" y="31" width="1" height="7" fill="#9EBBCF" />
<rect x="19" y="31" width="1" height="1" fill="#9DBBD1" />
<rect x="21" y="31" width="3" height="5" fill="#9EBBCF" />
<rect x="24" y="31" width="1" height="5" fill="#829DB0" />
<rect x="25" y="31" width="1" height="1" fill="#446782" />
<rect x="26" y="31" width="2" height="2" fill="#2B516E" />
<rect x="28" y="31" width="4" height="16" fill="#6688A4" />
<rect x="42" y="31" width="3" height="15" fill="#6688A4" />
<rect x="45" y="31" width="1" height="1" fill="#446782" />
<rect x="46" y="31" width="1" height="7" fill="#2B516E" />
<rect x="52" y="31" width="1" height="3" fill="#698769" />
<rect x="53" y="31" width="1" height="1" fill="#6A7F8D" />
<rect x="54" y="31" width="3" height="2" fill="#9EBBCF" />
<rect x="19" y="32" width="1" height="2" fill="#9EBBCF" />
<rect x="25" y="32" width="1" height="6" fill="#2B516E" />
<rect x="40" y="32" width="1" height="2" fill="#849FB2" />
<rect x="45" y="32" width="1" height="15" fill="#6688A4" />
<rect x="51" y="32" width="1" height="1" fill="#698769" />
<rect x="53" y="32" width="1" height="1" fill="#5A6F6D" />
<rect x="60" y="32" width="1" height="1" fill="#778B98" opacity="0.666667" />
<rect x="17" y="33" width="1" height="4" fill="#B8D4E6" />
<rect x="26" y="33" width="1" height="5" fill="#2B516E" />
<rect x="27" y="33" width="1" height="14" fill="#6688A4" />
<rect x="51" y="33" width="1" height="1" fill="#9EBBCF" />
<rect x="53" y="33" width="1" height="1" fill="#698769" />
<rect x="54" y="33" width="2" height="1" fill="#6A7F8D" />
<rect x="56" y="33" width="1" height="1" fill="#9EBBCF" />
<rect x="57" y="33" width="1" height="2" fill="#B8D4E6" />
<rect x="58" y="33" width="1" height="3" fill="#728F70" />
<rect x="60" y="33" width="1" height="6" fill="#54636C" opacity="0.890196" />
<rect x="19" y="34" width="1" height="4" fill="#9DBBD1" />
<rect x="20" y="34" width="1" height="9" fill="#9EBBCF" />
<rect x="40" y="34" width="1" height="2" fill="#89A4B7" />
<rect x="48" y="34" width="1" height="2" fill="#89A4B7" />
<rect x="49" y="34" width="2" height="2" fill="#9EBBCF" />
<rect x="51" y="34" width="1" height="1" fill="#6A7F8D" />
<rect x="52" y="34" width="1" height="1" fill="#5A6F6D" />
<rect x="53" y="34" width="1" height="1" fill="#56686E" />
<rect x="54" y="34" width="1" height="1" fill="#698769" />
<rect x="55" y="34" width="1" height="1" fill="#9EBBCF" />
<rect x="56" y="34" width="1" height="2" fill="#6A7F8D" />
<rect x="59" y="34" width="1" height="1" fill="#405B3D" />
<rect x="15" y="35" width="1" height="2" fill="#CDE7F7" />
<rect x="33" y="35" width="7" height="1" fill="#829DB0" />
<rect x="51" y="35" width="2" height="7" fill="#9EBBCF" />
<rect x="53" y="35" width="1" height="1" fill="#698769" />
<rect x="54" y="35" width="1" height="18" fill="#9EBBCF" />
<rect x="55" y="35" width="1" height="1" fill="#698769" />
<rect x="57" y="35" width="1" height="1" fill="#728F70" />
<rect x="59" y="35" width="1" height="4" fill="#26394D" />
<rect x="21" y="36" width="2" height="3" fill="#9EBBCF" />
<rect x="23" y="36" width="1" height="1" fill="#829DB0" />
<rect x="24" y="36" width="1" height="3" fill="#446782" />
<rect x="32" y="36" width="3" height="2" fill="#446782" />
<rect x="35" y="36" width="6" height="2" fill="#2B516E" />
<rect x="48" y="36" width="1" height="3" fill="#2B516E" />
<rect x="49" y="36" width="1" height="1" fill="#89A4B7" />
<rect x="50" y="36" width="1" height="1" fill="#9EBBCF" />
<rect x="53" y="36" width="1" height="8" fill="#9EBBCF" />
<rect x="55" y="36" width="1" height="15" fill="#9EBBCF" />
<rect x="56" y="36" width="1" height="1" fill="#577546" />
<rect x="57" y="36" width="1" height="1" fill="#728794" />
<rect x="58" y="36" width="1" height="2" fill="#5A7849" />
<rect x="11" y="37" width="1" height="3" fill="#778B98" opacity="0.890196" />
<rect x="15" y="37" width="2" height="1" fill="#B8D4E6" />
<rect x="17" y="37" width="1" height="15" fill="#9EBBCF" />
<rect x="23" y="37" width="1" height="2" fill="#446782" />
<rect x="41" y="37" width="1" height="1" fill="#2B516E" />
<rect x="49" y="37" width="1" height="1" fill="#446782" />
<rect x="50" y="37" width="1" height="1" fill="#89A4B7" />
<rect x="56" y="37" width="1" height="13" fill="#9EBBCF" />
<rect x="57" y="37" width="1" height="1" fill="#566B63" />
<rect x="15" y="38" width="2" height="12" fill="#9EBBCF" />
<rect x="18" y="38" width="1" height="9" fill="#9DBBD1" />
<rect x="19" y="38" width="1" height="6" fill="#9EBBCF" />
<rect x="25" y="38" width="2" height="1" fill="#6688A4" />
<rect x="32" y="38" width="10" height="1" fill="#6688A4" />
<rect x="46" y="38" width="1" height="9" fill="#6688A4" />
<rect x="47" y="38" width="1" height="7" fill="#446782" />
<rect x="49" y="38" width="1" height="2" fill="#2B516E" />
<rect x="50" y="38" width="1" height="1" fill="#9EBBCF" />
<rect x="57" y="38" width="1" height="2" fill="#728F70" />
<rect x="58" y="38" width="1" height="1" fill="#566B63" />
<rect x="21" y="39" width="1" height="1" fill="#6A7F8D" />
<rect x="22" y="39" width="2" height="1" fill="#9EBBCF" />
<rect x="24" y="39" width="1" height="1" fill="#6688A4" />
<rect x="25" y="39" width="1" height="4" fill="#446782" />
<rect x="26" y="39" width="1" height="1" fill="#6688A4" />
<rect x="32" y="39" width="2" height="1" fill="#6688A4" />
<rect x="34" y="39" width="1" height="1" fill="#829DB0" />
<rect x="35" y="39" width="7" height="1" fill="#6688A4" />
<rect x="48" y="39" width="1" height="1" fill="#4E6E4E" />
<rect x="50" y="39" width="1" height="1" fill="#89A4B7" />
<rect x="58" y="39" width="1" height="2" fill="#728F70" />
<rect x="59" y="39" width="1" height="1" fill="#4D615F" />
<rect x="60" y="39" width="1" height="19" fill="#778B98" opacity="0.666667" />
<rect x="11" y="40" width="1" height="2" fill="#54636C" opacity="0.890196" />
<rect x="21" y="40" width="1" height="2" fill="#9EBBCF" />
<rect x="22" y="40" width="1" height="1" fill="#5A6F6D" />
<rect x="23" y="40" width="2" height="1" fill="#9EBBCF" />
<rect x="26" y="40" width="1" height="6" fill="#446782" />
<rect x="32" y="40" width="2" height="1" fill="#829DB0" />
<rect x="34" y="40" width="6" height="7" fill="#9EBBCF" />
<rect x="40" y="40" width="1" height="6" fill="#89A4B7" />
<rect x="41" y="40" width="1" height="6" fill="#6688A4" />
<rect x="48" y="40" width="1" height="1" fill="#658361" />
<rect x="49" y="40" width="1" height="1" fill="#59774B" />
<rect x="50" y="40" width="1" height="1" fill="#9EBBCF" />
<rect x="57" y="40" width="1" height="9" fill="#B8D4E6" />
<rect x="59" y="40" width="1" height="2" fill="#496638" />
<rect x="22" y="41" width="1" height="1" fill="#698769" />
<rect x="23" y="41" width="1" height="1" fill="#6A7F8D" />
<rect x="24" y="41" width="1" height="2" fill="#9EBBCF" />
<rect x="32" y="41" width="1" height="6" fill="#829DB0" />
<rect x="33" y="41" width="1" height="12" fill="#9EBBCF" />
<rect x="48" y="41" width="1" height="1" fill="#617F5D" />
<rect x="49" y="41" width="1" height="2" fill="#658361" />
<rect x="50" y="41" width="1" height="1" fill="#5A784C" />
<rect x="58" y="41" width="1" height="8" fill="#B8D4E6" />
<rect x="11" y="42" width="1" height="3" fill="#566670" opacity="0.964706" />
<rect x="21" y="42" width="1" height="1" fill="#698769" />
<rect x="22" y="42" width="1" height="1" fill="#6A7F8D" />
<rect x="23" y="42" width="1" height="1" fill="#9EBBCF" />
<rect x="48" y="42" width="1" height="1" fill="#5A784C" />
<rect x="50" y="42" width="2" height="1" fill="#658361" />
<rect x="52" y="42" width="1" height="2" fill="#9EBBCF" />
<rect x="59" y="42" width="1" height="5" fill="#405B3D" />
<rect x="20" y="43" width="1" height="4" fill="#698769" />
<rect x="21" y="43" width="1" height="1" fill="#5A6F6D" />
<rect x="22" y="43" width="1" height="2" fill="#577546" />
<rect x="23" y="43" width="2" height="1" fill="#698769" />
<rect x="25" y="43" width="1" height="1" fill="#6688A4" />
<rect x="48" y="43" width="4" height="1" fill="#9EBBCF" />
<rect x="19" y="44" width="1" height="2" fill="#9DBBD1" />
<rect x="21" y="44" width="1" height="1" fill="#556A62" />
<rect x="23" y="44" width="1" height="1" fill="#577546" />
<rect x="24" y="44" width="1" height="1" fill="#698769" />
<rect x="25" y="44" width="1" height="1" fill="#9EBBCF" />
<rect x="48" y="44" width="3" height="9" fill="#9EBBCF" />
<rect x="51" y="44" width="3" height="1" fill="#658361" />
<rect x="11" y="45" width="1" height="5" fill="#54636C" opacity="0.890196" />
<rect x="21" y="45" width="3" height="1" fill="#5A6F6D" />
<rect x="24" y="45" width="2" height="1" fill="#6A7F8D" />
<rect x="47" y="45" width="1" height="8" fill="#9EBBCF" />
<rect x="51" y="45" width="1" height="8" fill="#9EBBCF" />
<rect x="52" y="45" width="2" height="1" fill="#658361" />
<rect x="19" y="46" width="1" height="4" fill="#9EBBCF" />
<rect x="21" y="46" width="1" height="1" fill="#54666B" />
<rect x="22" y="46" width="1" height="1" fill="#516F3B" />
<rect x="23" y="46" width="1" height="1" fill="#698769" />
<rect x="24" y="46" width="2" height="7" fill="#9EBBCF" />
<rect x="26" y="46" width="1" height="1" fill="#6688A4" />
<rect x="40" y="46" width="1" height="1" fill="#9EBBCF" />
<rect x="41" y="46" width="2" height="1" fill="#7B98AD" />
<rect x="43" y="46" width="2" height="1" fill="#6688A4" />
<rect x="52" y="46" width="2" height="7" fill="#9EBBCF" />
<rect x="18" y="47" width="1" height="5" fill="#9EBBCF" />
<rect x="20" y="47" width="1" height="2" fill="#556A62" />
<rect x="21" y="47" width="1" height="1" fill="#516F3B" />
<rect x="22" y="47" width="1" height="1" fill="#698769" />
<rect x="23" y="47" width="1" height="6" fill="#9EBBCF" />
<rect x="26" y="47" width="7" height="6" fill="#9EBBCF" />
<rect x="34" y="47" width="1" height="1" fill="#9FBCD1" />
<rect x="35" y="47" width="3" height="6" fill="#9EBBCF" />
<rect x="38" y="47" width="3" height="1" fill="#9FBCD1" />
<rect x="41" y="47" width="6" height="1" fill="#9EBBCF" />
<rect x="59" y="47" width="1" height="11" fill="#26394D" />
<rect x="21" y="48" width="1" height="1" fill="#577546" />
<rect x="22" y="48" width="1" height="5" fill="#9EBBCF" />
<rect x="34" y="48" width="1" height="5" fill="#9EBBCF" />
<rect x="38" y="48" width="8" height="5" fill="#9EBBCF" />
<rect x="46" y="48" width="1" height="1" fill="#89A4B7" />
<rect x="13" y="49" width="2" height="1" fill="#B8D4E6" />
<rect x="20" y="49" width="1" height="1" fill="#5A6F6D" />
<rect x="21" y="49" width="1" height="1" fill="#698769" />
<rect x="46" y="49" width="1" height="4" fill="#9EBBCF" />
<rect x="57" y="49" width="2" height="1" fill="#C6E0F1" />
<rect x="11" y="50" width="1" height="6" fill="#778B98" opacity="0.666667" />
<rect x="13" y="50" width="1" height="2" fill="#B8D3E6" />
<rect x="14" y="50" width="2" height="1" fill="#B8D4E6" />
<rect x="16" y="50" width="1" height="1" fill="#9EBBCF" />
<rect x="19" y="50" width="1" height="2" fill="#698769" />
<rect x="20" y="50" width="1" height="1" fill="#556A62" />
<rect x="21" y="50" width="1" height="3" fill="#9EBBCF" />
<rect x="56" y="50" width="3" height="1" fill="#AFCBDD" />
<rect x="14" y="51" width="1" height="1" fill="#9CBAD0" />
<rect x="15" y="51" width="1" height="1" fill="#C6E0F1" />
<rect x="16" y="51" width="1" height="2" fill="#B8D4E6" />
<rect x="20" y="51" width="1" height="1" fill="#5A6F6D" />
<rect x="55" y="51" width="3" height="2" fill="#AFCBDD" />
<rect x="58" y="51" width="1" height="3" fill="#8BA9BE" />
<rect x="13" y="52" width="1" height="1" fill="#C6E0F2" />
<rect x="14" y="52" width="1" height="5" fill="#6688A4" />
<rect x="15" y="52" width="1" height="1" fill="#9CBAD0" />
<rect x="17" y="52" width="3" height="1" fill="#6A7F8D" />
<rect x="20" y="52" width="1" height="1" fill="#9EBBCF" />
<rect x="13" y="53" width="1" height="4" fill="#9CBAD0" />
<rect x="15" y="53" width="1" height="1" fill="#6688A4" />
<rect x="16" y="53" width="1" height="1" fill="#597080" />
<rect x="17" y="53" width="1" height="1" fill="#B8D4E6" />
<rect x="18" y="53" width="1" height="1" fill="#C6E0F1" />
<rect x="19" y="53" width="36" height="1" fill="#B8D4E6" />
<rect x="55" y="53" width="2" height="1" fill="#AFCBDD" />
<rect x="57" y="53" width="1" height="1" fill="#2B516E" />
<rect x="15" y="54" width="1" height="4" fill="#597080" />
<rect x="16" y="54" width="1" height="5" fill="#6688A4" />
<rect x="17" y="54" width="1" height="1" fill="#9CBAD0" />
<rect x="18" y="54" width="1" height="1" fill="#B8D3E6" />
<rect x="19" y="54" width="1" height="1" fill="#9CBAD0" />
<rect x="20" y="54" width="4" height="1" fill="#B8D4E6" />
<rect x="24" y="54" width="9" height="1" fill="#9CBAD0" />
<rect x="33" y="54" width="5" height="1" fill="#8BA9BE" />
<rect x="38" y="54" width="2" height="1" fill="#9CBAD0" />
<rect x="40" y="54" width="4" height="1" fill="#8BA9BE" />
<rect x="44" y="54" width="10" height="1" fill="#B8D4E6" />
<rect x="54" y="54" width="2" height="1" fill="#8BA9BE" />
<rect x="56" y="54" width="1" height="3" fill="#2B516E" />
<rect x="57" y="54" width="1" height="1" fill="#3D5363" />
<rect x="58" y="54" width="1" height="2" fill="#5E717E" />
<rect x="17" y="55" width="16" height="4" fill="#6688A4" />
<rect x="33" y="55" width="5" height="1" fill="#446782" />
<rect x="38" y="55" width="2" height="4" fill="#6688A4" />
<rect x="40" y="55" width="13" height="4" fill="#446782" />
<rect x="53" y="55" width="3" height="4" fill="#2B516E" />
<rect x="57" y="55" width="1" height="1" fill="#46545E" />
<rect x="11" y="56" width="1" height="1" fill="#778B98" opacity="0.890196" />
<rect x="33" y="56" width="2" height="3" fill="#446782" />
<rect x="35" y="56" width="3" height="3" fill="#2B516E" />
<rect x="57" y="56" width="1" height="1" fill="#43545F" />
<rect x="58" y="56" width="1" height="1" fill="#6A7D88" />
<rect x="13" y="57" width="2" height="1" fill="#26394D" />
<rect x="56" y="57" width="1" height="1" fill="#3D5363" />
<rect x="57" y="57" width="2" height="1" fill="#26394D" />
<rect x="13" y="58" width="1" height="1" fill="#859AA7" opacity="0.890196" />
<rect x="14" y="58" width="1" height="2" fill="#26394D" />
<rect x="15" y="58" width="1" height="1" fill="#6688A4" />
<rect x="56" y="58" width="1" height="1" fill="#2B516E" />
<rect x="57" y="58" width="1" height="2" fill="#26394D" />
<rect x="58" y="58" width="1" height="1" fill="#54636C" opacity="0.890196" />
<rect x="59" y="58" width="1" height="1" fill="#778B98" opacity="0.666667" />
<rect x="15" y="59" width="42" height="1" fill="#26394D" />
<rect x="58" y="59" width="1" height="1" fill="#778B98" opacity="0.666667" />
<rect x="15" y="60" width="15" height="1" fill="#778B98" opacity="0.666667" />
<rect x="30" y="60" width="5" height="1" fill="#778B98" opacity="0.890196" />
<rect x="35" y="60" width="1" height="1" fill="#778B98" opacity="0.964706" />
<rect x="36" y="60" width="3" height="1" fill="#778B98" opacity="0.890196" />
<rect x="39" y="60" width="5" height="1" fill="#566670" opacity="0.964706" />
<rect x="44" y="60" width="2" height="1" fill="#54636C" opacity="0.890196" />
<rect x="46" y="60" width="3" height="1" fill="#566670" opacity="0.964706" />
<rect x="49" y="60" width="3" height="1" fill="#778B98" opacity="0.890196" />
<rect x="52" y="60" width="5" height="1" fill="#778B98" opacity="0.666667" />
<rect x="57" y="60" width="1" height="1" fill="#778B98" opacity="0.890196" />
</svg>